<?xml version="1.0" encoding="UTF-8"?>
<svg width="30px" height="30px" viewBox="0 0 30 30" version="1.1" xmlns="http://www.w3.org/2000/svg" xmlns:xlink="http://www.w3.org/1999/xlink">
    <!-- Generator: Sketch 56.2 (81672) - https://sketch.com -->
    <title>ancient-scroll</title>
    <desc>Created with Sketch.</desc>
    <g id="Registration-New" stroke="none" stroke-width="1" fill="none" fill-rule="evenodd">
        <g id="diversepro-step-6" transform="translate(-514.000000, -510.000000)" fill="#FFFFFF" fill-rule="nonzero">
            <g id="reason-2" transform="translate(458.000000, 470.000000)">
                <g id="ancient-scroll" transform="translate(56.000000, 40.000000)">
                    <path d="M26.8359375,22.3308563 L26.8359375,9.58992006 C26.8359375,9.40246582 26.7462158,9.22622684 26.594696,9.11590576 L25.1481628,8.06419371 L26.2870788,7.35237123 C26.4505005,7.2502899 26.5532684,7.07427979 26.561966,6.88179018 C26.5704346,6.68930051 26.4839173,6.50482178 26.3303375,6.3885498 L25.2733612,5.58769225 L25.2733612,5.21484375 L26.25,5.21484375 C26.5736389,5.21484375 26.8359375,4.9525452 26.8359375,4.62890625 L26.8359375,3.45703125 C26.8359375,1.55090332 25.2850342,0 23.3789062,0 L3.3984375,0 C3.3924866,0 3.38699344,0.000686648438 3.38127135,0.000915527344 C3.3677673,0.000686648438 3.35472105,0 3.34121707,0 C2.41859438,0 1.56143191,0.45570375 0.927658066,1.28334047 C0.329360977,2.06451416 0,3.09448242 0,4.18350223 C0,6.14135742 1.28150941,7.734375 2.85667418,7.734375 L6.09832764,7.734375 L6.09832764,17.0214844 C6.09832764,17.2201538 6.19880678,17.4050903 6.36543275,17.5131226 L7.5141907,18.257904 L6.2937927,19.3482971 C6.1695099,19.4593048 6.09832764,19.6183777 6.09832764,19.7852326 L6.09832764,24.8632049 C6.09832764,24.8947907 6.10153195,24.9256897 6.10633852,24.9559021 C6.10153195,24.9863434 6.09832764,25.0172425 6.09832764,25.0488281 C6.09832764,26.5395355 6.48330691,27.7942658 7.21138002,28.6772919 C7.91473389,29.5301056 8.91494754,30 10.0275421,30 L26.1328125,30 C28.2653046,30 30,28.2653046 30,26.1328125 C30,24.2406463 28.6335755,22.6625061 26.8359375,22.3308563 L26.8359375,22.3308563 Z M4.80903627,6.5625 C4.98161314,6.23725893 5.0793457,5.86189271 5.0793457,5.45860289 C5.0793457,4.10774232 4.20433043,3.1640625 2.95120242,3.1640625 C2.62756348,3.1640625 2.36526492,3.42636105 2.36526492,3.75 C2.36526492,4.07363895 2.62756348,4.3359375 2.95120242,4.3359375 C3.5499573,4.3359375 3.9074707,4.75570676 3.9074707,5.45860289 C3.9074707,6.17568973 3.36593625,6.5625 2.85667418,6.5625 C1.94343568,6.5625 1.171875,5.47302246 1.171875,4.18350223 C1.171875,2.52296449 2.14508057,1.171875 3.34121707,1.171875 C4.16976926,1.171875 4.81750488,1.42936705 5.26588441,1.93702699 C5.81840514,2.56210324 6.09832764,3.57627867 6.09832764,4.95117188 L6.09832764,6.5625 L4.80903627,6.5625 Z M8.11546324,27.9315949 C7.56248473,27.2609711 7.27020264,26.2641907 7.27020264,25.0488281 C7.27020264,25.0172425 7.26699832,24.9863434 7.26219176,24.9559021 C7.26699832,24.9256897 7.27020264,24.8947907 7.27020264,24.8632049 L7.27020264,20.0473022 L8.86688232,18.6204529 C9.00306703,18.4989166 9.0749359,18.3206177 9.06074525,18.1384277 C9.04678348,17.9564667 8.94859313,17.791214 8.79547119,17.6918793 L7.27020264,16.7031097 L7.27020264,4.95117188 C7.27020264,3.28880309 6.89414977,2.0175934 6.15325928,1.171875 L23.3789063,1.171875 C24.6389007,1.171875 25.6640625,2.19703676 25.6640625,3.45703125 L25.6640625,4.04296875 L24.6874237,4.04296875 C24.3640137,4.04296875 24.1014862,4.3052673 24.1014862,4.62890625 L24.1014862,5.87882994 C24.1014862,6.0623932 24.1875458,6.23519895 24.3338013,6.34597781 L24.9451447,6.80923465 L23.7911224,7.53044127 C23.6258698,7.63366699 23.5228729,7.81219482 23.5160065,8.00674441 C23.50914,8.20129395 23.5995483,8.3866882 23.757019,8.50112918 L25.6640625,9.88815305 L25.6640625,22.265625 L10.7675171,22.265625 C10.738678,22.265625 10.7102966,22.2683716 10.682373,22.2724915 C10.6260681,22.2683716 10.5693054,22.265625 10.5118561,22.265625 C9.26559445,22.265625 8.28918457,23.2653809 8.28918457,24.5413971 C8.28918457,25.8924866 9.16419984,26.8359375 10.4173279,26.8359375 C10.7409668,26.8359375 11.0032654,26.5736389 11.0032654,26.25 C11.0032654,25.9263611 10.7409668,25.6640625 10.4173279,25.6640625 C9.81857297,25.6640625 9.46105957,25.2442932 9.46105957,24.5413971 C9.46105957,23.8243103 10.002594,23.4375 10.5118561,23.4375 C11.4250946,23.4375 12.1966553,24.5269775 12.1966553,25.8164978 C12.1966553,27.4770355 11.2236786,28.828125 10.0275421,28.828125 C9.26033021,28.828125 8.59909055,28.518219 8.11546324,27.9315949 L8.11546324,27.9315949 Z M26.1328125,28.828125 L12.3511505,28.828125 C12.3813629,28.7915039 12.4115753,28.7548828 12.4408722,28.7166595 C13.0025482,27.9833221 13.3271027,27.030487 13.3648682,26.015625 L22.5,26.015625 C22.8236389,26.015625 23.0859375,25.7533264 23.0859375,25.4296875 C23.0859375,25.1060486 22.8236389,24.84375 22.5,24.84375 L13.258667,24.84375 C13.1373596,24.3145752 12.9199219,23.8350677 12.6306152,23.4375 L26.1328125,23.4375 C27.6189422,23.4375 28.828125,24.6466828 28.828125,26.1328125 C28.828125,27.6189422 27.6189422,28.828125 26.1328125,28.828125 Z" id="Shape"></path>
                    <path d="M11.0869565,5.86956522 C11.2584069,5.86956522 11.426036,5.79976226 11.5480639,5.67849861 C11.6693274,5.55723509 11.7391304,5.3888417 11.7391304,5.2173913 C11.7391304,5.04594091 11.6693274,4.87754752 11.5480639,4.756284 C11.426036,4.63502035 11.2584069,4.56521739 11.0869565,4.56521739 C10.9147418,4.56521739 10.7471128,4.63502035 10.6258492,4.756284 C10.5045856,4.87754752 10.4347826,5.04594091 10.4347826,5.2173913 C10.4347826,5.3888417 10.5045856,5.55723509 10.6258492,5.67849861 C10.7471128,5.79976226 10.9147418,5.86956522 11.0869565,5.86956522 Z" id="Path"></path>
                    <path d="M13.6386887,5.86956522 L22.2308765,5.86956522 C22.5596373,5.86956522 22.826087,5.57761552 22.826087,5.2173913 C22.826087,4.85716709 22.5596373,4.56521739 22.2308765,4.56521739 L13.6386887,4.56521739 C13.3099279,4.56521739 13.0434783,4.85716709 13.0434783,5.2173913 C13.0434783,5.57761552 13.3099279,5.86956522 13.6386887,5.86956522 Z" id="Path"></path>
                    <path d="M11.0333963,9.13043478 L22.2274732,9.13043478 C22.5581137,9.13043478 22.826087,8.83848509 22.826087,8.47826087 C22.826087,8.11803665 22.5581137,7.82608696 22.2274732,7.82608696 L11.0333963,7.82608696 C10.7029896,7.82608696 10.4347826,8.11803665 10.4347826,8.47826087 C10.4347826,8.83848509 10.7029896,9.13043478 11.0333963,9.13043478 Z" id="Path"></path>
                    <path d="M11.0333963,12.3913043 L22.2274732,12.3913043 C22.5581137,12.3913043 22.826087,12.0993547 22.826087,11.7391304 C22.826087,11.3789062 22.5581137,11.0869565 22.2274732,11.0869565 L11.0333963,11.0869565 C10.7029896,11.0869565 10.4347826,11.3789062 10.4347826,11.7391304 C10.4347826,12.0993547 10.7029896,12.3913043 11.0333963,12.3913043 Z" id="Path"></path>
                    <path d="M11.0333963,15.6521739 L22.2274732,15.6521739 C22.5581137,15.6521739 22.826087,15.3602242 22.826087,15 C22.826087,14.6397758 22.5581137,14.3478261 22.2274732,14.3478261 L11.0333963,14.3478261 C10.7029896,14.3478261 10.4347826,14.6397758 10.4347826,15 C10.4347826,15.3602242 10.7029896,15.6521739 11.0333963,15.6521739 Z" id="Path"></path>
                    <path d="M11.0333963,18.9130435 L22.2274732,18.9130435 C22.5581137,18.9130435 22.826087,18.6210938 22.826087,18.2608696 C22.826087,17.9006453 22.5581137,17.6086957 22.2274732,17.6086957 L11.0333963,17.6086957 C10.7029896,17.6086957 10.4347826,17.9006453 10.4347826,18.2608696 C10.4347826,18.6210938 10.7029896,18.9130435 11.0333963,18.9130435 Z" id="Path"></path>
                    <path d="M24.7826087,24.7826087 C24.6109035,24.7826087 24.4427649,24.8524117 24.3215013,24.9736753 C24.2002377,25.0949388 24.1304348,25.2633322 24.1304348,25.4347826 C24.1304348,25.606233 24.199983,25.7746264 24.3215013,25.8958899 C24.4427649,26.0171536 24.6109035,26.0869565 24.7826087,26.0869565 C24.9540591,26.0869565 25.1221977,26.0171536 25.2434613,25.8958899 C25.3649796,25.7746264 25.4347826,25.606233 25.4347826,25.4347826 C25.4347826,25.2633322 25.3649796,25.0949388 25.2434613,24.9736753 C25.1221977,24.8524117 24.9540591,24.7826087 24.7826087,24.7826087 Z" id="Path"></path>
                </g>
            </g>
        </g>
    </g>
</svg>