<svg xmlns="http://www.w3.org/2000/svg" width="90" height="90" viewBox="0 0 90 90">
    <g fill="none" fill-rule="evenodd">
        <circle cx="45" cy="45" r="45" fill="#DEF3F5"/>
        <g fill="#1EAFBD" fill-rule="nonzero">
            <path d="M46.375 17.797c-.668 0-1.297-.26-1.77-.733L32.962 5.418c-.473-.472-.733-1.1-.733-1.769 0-.668.26-1.296.733-1.768L34.103.739c.944-.946 2.593-.946 3.538 0l11.645 11.646c.472.472.732 1.1.732 1.768 0 .669-.26 1.297-.732 1.77l-1.143 1.141c-.471.474-1.1.733-1.768.733zM35.871 1.674c-.224 0-.434.087-.59.245L34.139 3.06c-.157.157-.244.367-.244.59 0 .223.087.433.244.59l11.646 11.647c.315.316.865.316 1.18 0l1.142-1.142c.158-.157.245-.367.245-.59 0-.224-.087-.433-.244-.59L36.462 1.917c-.159-.158-.368-.245-.591-.245zM45.667 44.286c-.18-.182-.433-.286-.69-.286-.257 0-.508.104-.69.286-.183.182-.287.434-.287.69 0 .258.104.51.286.691.183.182.434.286.692.286.256 0 .507-.104.689-.286.183-.182.287-.434.287-.69 0-.257-.104-.51-.287-.69zM5.527 50c-.214 0-.427-.082-.59-.244L.27 45.087c-.326-.325-.326-.852 0-1.178l3.502-3.502c.312-.312.866-.312 1.178 0l4.668 4.67c.326.326.326.852 0 1.178l-3.5 3.5c-.164.163-.377.245-.59.245zm-3.49-5.502l3.49 3.49 2.322-2.322-3.49-3.49-2.322 2.322z" transform="translate(20 20)"/>
            <path d="M7.86 45.332c-.22 0-.433-.088-.588-.245l-2.335-2.335c-.325-.325-.325-.852 0-1.178L19.303 27.21l.565-9.603c.012-.204.098-.397.243-.54L32.947 4.228c.157-.156.369-.244.59-.244.221 0 .433.088.59.244l2.334 2.335c.326.326.326.853 0 1.179l-9.914 9.914 5.824 5.824 9.914-9.915c.157-.157.368-.244.59-.244.22 0 .432.087.59.244l2.333 2.335c.326.326.326.853 0 1.178L32.96 29.916c-.144.144-.337.23-.54.242l-9.603.565L8.452 45.088c-.158.156-.37.244-.591.244zm-1.155-3.168l1.156 1.157 13.999-14c.144-.144.337-.231.54-.243l9.604-.565L44.03 16.488l-1.156-1.156-9.914 9.915c-.312.312-.866.312-1.178 0l-7.003-7.003c-.325-.326-.325-.852 0-1.178l9.915-9.914-1.156-1.157-12.025 12.026-.565 9.603c-.012.204-.099.397-.243.54l-13.999 14zm22.748-14.922h-5.836c-.46 0-.834-.373-.834-.834v-5.835c0-.337.204-.642.515-.77.311-.131.67-.058.908.18l5.836 5.836c.238.239.31.597.18.909-.129.311-.433.514-.77.514zm-5.003-1.667h2.99l-2.99-2.99v2.99zM3.668 17.797c-.668 0-1.296-.26-1.769-.733L.757 15.922c-.472-.472-.732-1.1-.732-1.769 0-.668.26-1.296.732-1.768L12.404.739c.945-.946 2.593-.946 3.539 0l1.141 1.142c.473.472.733 1.1.733 1.768 0 .668-.26 1.297-.733 1.77L5.438 17.063c-.473.474-1.101.733-1.77.733zM14.173 1.674c-.224 0-.433.087-.59.245L1.936 13.564c-.158.158-.245.367-.245.59 0 .223.087.434.245.591l1.141 1.142c.315.316.865.316 1.181 0L15.905 4.24c.158-.158.244-.368.244-.591 0-.223-.087-.433-.244-.59l-1.142-1.142c-.158-.158-.368-.245-.59-.245zM44.517 50c-.214 0-.427-.082-.59-.244l-3.5-3.501c-.326-.326-.326-.852 0-1.178l4.668-4.67c.313-.311.866-.311 1.178 0l3.502 3.502c.325.326.325.853 0 1.178l-4.668 4.669c-.164.162-.377.244-.59.244zm-2.323-4.334l2.323 2.322 3.49-3.49-2.323-2.323-3.49 3.49z" transform="translate(20 20)"/>
            <path d="M22.688 16.5c-.214 0-.427-.082-.59-.244L13.583 7.74c-.156-.157-.244-.368-.244-.59 0-.221.088-.433.244-.588l2.335-2.335c.325-.325.852-.325 1.178 0l8.515 8.515c.156.157.244.368.244.59 0 .221-.088.433-.244.589l-1.99 1.989-.345.346c-.163.161-.376.243-.588.243zM15.35 7.152l7.336 7.336 1.156-1.155-7.336-7.337-1.156 1.156zM42.182 45.332c-.22 0-.433-.088-.589-.245L27.005 30.498c-.225-.225-.302-.556-.2-.856.102-.3.365-.517.68-.559l4.123-.545c.258-.035.515.054.699.237l12.8 12.8c.325.325.325.852 0 1.177l-2.334 2.335c-.157.157-.37.245-.59.245zM29.377 30.514L42.182 43.32l1.156-1.157-11.92-11.92-2.041.271zM18.327 30.198l-.05-.002-.652-.039c-.204-.011-.397-.098-.54-.242L4.247 17.078c-.325-.326-.325-.853 0-1.179l2.335-2.335c.312-.312.865-.313 1.179 0l9.914 9.915 2.188-2.187c.244-.245.614-.314.93-.171.315.142.511.464.49.809l-.335 5.694c-.011.204-.098.397-.242.54l-1.79 1.788c-.157.159-.37.245-.59.245zM6.014 16.488L18.02 28.493l1.284-1.283.187-3.19-1.227 1.227c-.312.313-.866.313-1.178 0L7.17 15.332l-1.156 1.156z" transform="translate(20 20)"/>
        </g>
    </g>
</svg>
