<?xml version="1.0" encoding="UTF-8"?>
<svg width="341px" height="34px" viewBox="0 0 341 34" version="1.1" xmlns="http://www.w3.org/2000/svg" xmlns:xlink="http://www.w3.org/1999/xlink">
    <!-- Generator: Sketch 55.2 (78181) - https://sketchapp.com -->
    <title>diversepro-text-color</title>
    <desc>Created with Sketch.</desc>
    <g id="Desktop" stroke="none" stroke-width="1" fill="none" fill-rule="evenodd">
        <g id="diversepro-home-circle" transform="translate(-367.000000, -2426.000000)" fill="#1EAFBD">
            <g id="Feedback" transform="translate(0.000000, 2330.000000)">
                <g transform="translate(180.000000, 0.000000)" id="title">
                    <g>
                        <g id="diversepro-text-color" transform="translate(187.000000, 96.000000)">
                            <path d="M18.6057716,23.3794996 C19.5851369,21.9597995 20.0742772,19.7152851 20.0742772,16.647041 C20.0742772,13.5793391 19.5851369,11.3348248 18.6057716,9.91458239 C17.6264063,8.4948823 15.9615937,7.78448997 13.6113339,7.78448997 L9.98833304,7.78448997 L9.98833304,25.509592 L13.6113339,25.509592 C15.9615937,25.509592 17.6264063,24.7991997 18.6057716,23.3794996 Z M26.366401,4.67557454 C29.0263051,7.46671142 30.3570706,11.4568387 30.3570706,16.647041 C30.3570706,21.836701 29.0263051,25.8279128 26.366401,28.6179651 C23.7054124,31.4096443 19.8617018,32.8043993 14.8352694,32.8043993 L1.77635684e-14,32.8043993 L1.77635684e-14,0.489140366 L14.8352694,0.489140366 C19.8617018,0.489140366 23.7054124,1.88443766 26.366401,4.67557454 L26.366401,4.67557454 Z" id="Fill-1"></path>
                            <polygon id="Fill-3" points="38.7782023 32.8043993 48.7665353 32.8043993 48.7665353 0.489140366 38.7782023 0.489140366"></polygon>
                            <polyline id="Fill-4" points="78.3882685 32.8043993 66.5393583 32.8043993 55.3758954 0.489140366 65.8051055 0.489140366 70.9947655 19.0461064 72.659578 25.3620907 74.2262371 19.1437175 79.465245 0.489140366 89.5517315 0.489140366 78.3882685 32.8043993"></polyline>
                            <polyline id="Fill-5" points="122.846356 25.3127428 122.846356 32.8043993 96.1616338 32.8043993 96.1616338 0.489140366 122.209714 0.489140366 122.209714 7.98025458 106.149967 7.98025458 106.149967 13.2198047 118.978242 13.2198047 118.978242 20.1724307 106.149967 20.1724307 106.149967 25.3127428 122.846356 25.3127428"></polyline>
                            <path d="M140.374609,14.7864638 L145.222087,14.7864638 C146.85382,14.7864638 148.012682,14.5169486 148.698129,13.9784603 C149.383576,13.4399721 149.7263,12.550626 149.7263,11.3098797 C149.7263,10.0696757 149.3749,9.17219529 148.673726,8.61689625 C147.971468,8.06268178 146.820741,7.78448997 145.222087,7.78448997 L140.374609,7.78448997 L140.374609,14.7864638 Z M144.438486,21.5921308 L140.374609,21.5921308 L140.374609,32.8043993 L130.58204,32.8043993 L130.58204,0.489140366 L147.13147,0.489140366 C151.244153,0.489140366 154.378014,1.38770532 156.532509,3.1821238 C158.686462,4.97762685 159.763981,7.60553618 159.763981,11.0653095 C159.763981,15.7658291 157.755902,18.9159582 153.741372,20.5151543 L161.624016,32.8043993 L150.705665,32.8043993 L144.438486,21.5921308 L144.438486,21.5921308 Z" id="Fill-6"></path>
                            <path d="M189.802188,1.24833827 C192.037484,2.08074455 194.184387,3.49285266 196.240729,5.48303575 L191.344445,11.7995623 C190.038082,10.2985196 188.642785,9.21286661 187.15801,8.54368788 C185.672152,7.87505144 183.96721,7.53991979 182.041017,7.53991979 C180.637585,7.53991979 179.54434,7.76876373 178.760739,8.22536704 C177.977681,8.68251264 177.585609,9.28661726 177.585609,10.0365963 C177.585609,10.6244324 177.993407,11.0821203 178.809545,11.4080331 C179.625683,11.7344882 180.980309,12.0772119 182.873965,12.436204 C186.007826,12.9915031 188.512094,13.7181639 190.389482,14.615102 C192.266328,15.5131247 193.637222,16.647041 194.502708,18.0179355 C195.366567,19.38883 195.799852,21.0861796 195.799852,23.1099843 C195.799852,25.2644795 195.179479,27.1093304 193.939275,28.6423679 C192.698528,30.1775745 191.017447,31.3358936 188.896031,32.118952 C186.774073,32.9020105 184.375008,33.294082 181.698835,33.294082 C177.977681,33.294082 174.973969,32.8944185 172.689867,32.0945493 C170.404682,31.2952223 168.283266,30.0306155 166.324535,28.2996443 L170.975707,21.4451718 C172.280985,22.9803784 173.742441,24.0817576 175.357906,24.7498518 C176.973371,25.4195728 178.874619,25.7541622 181.062736,25.7541622 C184.032284,25.7541622 185.517601,25.0367201 185.517601,23.5991247 C185.517601,22.9803784 185.084858,22.4901534 184.220457,22.130619 C183.354971,21.7721691 181.959674,21.413177 180.034023,21.0536425 C177.422382,20.5639599 175.227215,19.9761238 173.448523,19.2912188 C171.669289,18.6052293 170.192649,17.585735 169.017519,16.2305667 C167.842389,14.876483 167.255095,13.0728457 167.255095,10.820197 C167.255095,8.69932345 167.825578,6.82247777 168.968713,5.18965998 C170.110764,3.55792677 171.775576,2.28464342 173.962609,1.37035222 C176.149099,0.457145597 178.760739,-4.61852778e-14 181.796446,-4.61852778e-14 C184.89777,-4.61852778e-14 187.56635,0.415389712 189.802188,1.24833827" id="Fill-8"></path>
                            <polyline id="Fill-10" points="230.366675 25.3127428 230.366675 32.8043993 203.682495 32.8043993 203.682495 0.489140366 229.730575 0.489140366 229.730575 7.98025458 213.670286 7.98025458 213.670286 13.2198047 226.499104 13.2198047 226.499104 20.1724307 213.670286 20.1724307 213.670286 25.3127428 230.366675 25.3127428"></polyline>
                            <path d="M256.463018,14.5662964 C257.442926,13.7333479 257.932066,12.4850096 257.932066,10.820197 C257.932066,9.15538448 257.442926,7.91518047 256.463018,7.09904272 C255.484195,6.28398954 253.949531,5.87510724 251.860652,5.87510724 L246.083156,5.87510724 L246.083156,15.8146347 L251.860652,15.8146347 C253.949531,15.8146347 255.484195,15.3981604 256.463018,14.5662964 Z M261.653763,3.20706888 C263.742099,5.01884045 264.787081,7.57299913 264.787081,10.8695449 C264.787081,14.0690218 263.742099,16.5651561 261.653763,18.3606591 C259.564342,20.1561622 256.642514,21.0536425 252.889365,21.0536425 L246.083156,21.0536425 L246.083156,32.8043993 L239.326837,32.8043993 L239.326837,0.489140366 L252.889365,0.489140366 C256.642514,0.489140366 259.564342,1.3952973 261.653763,3.20706888 L261.653763,3.20706888 Z" id="Fill-11"></path>
                            <path d="M281.287705,15.2761465 L287.995219,15.2761465 C289.953949,15.2761465 291.398052,14.8927515 292.328612,14.1254194 C293.258629,13.3586295 293.723909,12.1753653 293.723909,10.5756269 C293.723909,8.97643069 293.258629,7.79316652 292.328612,7.02583435 C291.398052,6.25904446 289.953949,5.87510724 287.995219,5.87510724 L281.287705,5.87510724 L281.287705,15.2761465 Z M287.358577,20.4170009 L281.287705,20.4170009 L281.287705,32.8043993 L274.628997,32.8043993 L274.628997,0.489140366 L288.876973,0.489140366 C292.565048,0.489140366 295.445119,1.36276024 297.518272,3.10837315 C299.591425,4.8556129 300.62773,7.31216042 300.62773,10.4774734 C300.62773,12.7951962 300.056162,14.737116 298.914112,16.3043173 C297.770976,17.8709765 296.139243,18.9973008 294.017285,19.682748 L302.537112,32.8043993 L294.947845,32.8043993 L287.358577,20.4170009 L287.358577,20.4170009 Z" id="Fill-12"></path>
                            <path d="M318.866375,8.39672886 C317.380516,10.3066539 316.638671,13.0565772 316.638671,16.647041 C316.638671,20.2380471 317.380516,22.9874281 318.866375,24.8973531 C320.351149,26.8061935 322.464973,27.7611561 325.206762,27.7611561 C327.916014,27.7611561 330.012485,26.8061935 331.498886,24.8973531 C332.98366,22.9874281 333.726047,20.2380471 333.726047,16.647041 C333.726047,13.0565772 332.98366,10.3066539 331.498886,8.39672886 C330.012485,6.48734612 327.916014,5.53238361 325.206762,5.53238361 C322.464973,5.53238361 320.351149,6.48734612 318.866375,8.39672886 Z M333.457074,2.0069939 C335.790523,3.34589364 337.586026,5.26341064 338.843041,7.76008718 C340.098971,10.257306 340.728021,13.2198047 340.728021,16.647041 C340.728021,20.0742772 340.098971,23.0362337 338.843041,25.5339948 C337.586026,28.0306713 335.790523,29.9487306 333.457074,31.2865458 C331.122541,32.6254455 328.372617,33.294082 325.206762,33.294082 C322.040364,33.294082 319.282307,32.6254455 316.932047,31.2865458 C314.581787,29.9487306 312.77815,28.0306713 311.52222,25.5339948 C310.264663,23.0362337 309.636697,20.0742772 309.636697,16.647041 C309.636697,13.2198047 310.264663,10.257306 311.52222,7.76008718 C312.77815,5.26341064 314.581787,3.34589364 316.932047,2.0069939 C319.282307,0.669178727 322.040364,0 325.206762,0 C328.372617,0 331.122541,0.669178727 333.457074,2.0069939 L333.457074,2.0069939 Z" id="Fill-14"></path>
                        </g>
                    </g>
                </g>
            </g>
        </g>
    </g>
</svg>