<?xml version="1.0" encoding="UTF-8"?>
<svg width="261px" height="26px" viewBox="0 0 261 26" version="1.1" xmlns="http://www.w3.org/2000/svg" xmlns:xlink="http://www.w3.org/1999/xlink">
    <!-- Generator: Sketch 56.2 (81672) - https://sketch.com -->
    <title>diversepro-text-color</title>
    <desc>Created with Sketch.</desc>
    <g id="Registration-New" stroke="none" stroke-width="1" fill="none" fill-rule="evenodd">
        <g id="diversepro-step-1" transform="translate(-665.000000, -1000.000000)" fill="#1EAFBD">
            <g id="why-claim-profile" transform="translate(180.000000, 990.000000)">
                <g id="title" transform="translate(169.000000, 0.000000)">
                    <g id="diversepro-text-color" transform="translate(316.000000, 10.000000)">
                        <path d="M14.227943,17.8784408 C14.9768694,16.7927878 15.3509179,15.0763945 15.3509179,12.7300902 C15.3509179,10.3842005 14.9768694,8.66780717 14.227943,7.58173947 C13.4790166,6.49608647 12.2059246,5.95284527 10.4086671,5.95284527 L7.63813703,5.95284527 L7.63813703,19.507335 L10.4086671,19.507335 C12.2059246,19.507335 13.4790166,18.9640939 14.227943,17.8784408 Z M20.162542,3.57543936 C22.1965863,5.70983815 23.2142305,8.76111195 23.2142305,12.7300902 C23.2142305,16.6986537 22.1965863,19.7507569 20.162542,21.8843263 C18.1276683,24.0191398 15.1883602,25.0857171 11.3446178,25.0857171 L1.77635684e-14,25.0857171 L1.77635684e-14,0.374048515 L11.3446178,0.374048515 C15.1883602,0.374048515 18.1276683,1.44104057 20.162542,3.57543936 L20.162542,3.57543936 Z" id="Fill-1"></path>
                        <polygon id="Fill-3" points="29.6539194 25.0857171 37.2920564 25.0857171 37.2920564 0.374048515 29.6539194 0.374048515"></polygon>
                        <polyline id="Fill-4" points="59.94397 25.0857171 50.8830387 25.0857171 42.3462729 0.374048515 50.3215513 0.374048515 54.2901148 14.5646696 55.5632067 19.3945399 56.7612402 14.6393134 60.7675403 0.374048515 68.4807358 0.374048515 59.94397 25.0857171"></polyline>
                        <polyline id="Fill-5" points="93.9413308 19.3568033 93.9413308 25.0857171 73.535367 25.0857171 73.535367 0.374048515 93.4544872 0.374048515 93.4544872 6.10254762 81.1735041 6.10254762 81.1735041 10.1092624 90.9833618 10.1092624 90.9833618 15.4259764 81.1735041 15.4259764 81.1735041 19.3568033 93.9413308 19.3568033"></polyline>
                        <path d="M107.345289,11.3072959 L111.052184,11.3072959 C112.29998,11.3072959 113.186168,11.101196 113.710334,10.6894108 C114.2345,10.2776257 114.496582,9.59753751 114.496582,8.64873152 C114.496582,7.70034022 114.227865,7.01403169 113.691673,6.58939125 C113.154652,6.16558018 112.274684,5.95284527 111.052184,5.95284527 L107.345289,5.95284527 L107.345289,11.3072959 Z M110.45296,16.5116294 L107.345289,16.5116294 L107.345289,25.0857171 L99.8568542,25.0857171 L99.8568542,0.374048515 L112.512301,0.374048515 C115.657294,0.374048515 118.053775,1.06118642 119.701331,2.43338879 C121.348471,3.80642053 122.172456,5.81599826 122.172456,8.46170727 C122.172456,12.0562223 120.636867,14.4651445 117.566932,15.6880592 L123.594836,25.0857171 L115.245509,25.0857171 L110.45296,16.5116294 L110.45296,16.5116294 Z" id="Fill-6"></path>
                        <path d="M145.14285,0.954611621 C146.852194,1.5911576 148.493943,2.67100497 150.06644,4.19290969 L146.322222,9.02319473 C145.323239,7.87533853 144.256247,7.04513329 143.120832,6.53340838 C141.984587,6.02209816 140.680808,5.76582102 139.207836,5.76582102 C138.134624,5.76582102 137.298613,5.94081932 136.699389,6.28998656 C136.10058,6.63956849 135.80076,7.10153085 135.80076,7.67504426 C135.80076,8.12456598 136.112605,8.47456259 136.736711,8.72379004 C137.360816,8.97343218 138.396707,9.23551495 139.844797,9.51003836 C142.241278,9.9346788 144.156307,10.4903606 145.591957,11.1762545 C147.027192,11.8629777 148.075523,12.7300902 148.737365,13.7784213 C149.397963,14.8267523 149.729298,16.1247256 149.729298,17.6723409 C149.729298,19.3198961 149.254895,20.7306644 148.306504,21.9029872 C147.357698,23.0769688 146.072166,23.9627422 144.449906,24.5615516 C142.827232,25.1603609 140.992653,25.4601803 138.946168,25.4601803 C136.10058,25.4601803 133.803623,25.1545553 132.056957,24.5428906 C130.309463,23.9316406 128.687203,22.9645883 127.189351,21.6409045 L130.746129,16.399249 C131.744283,17.5732305 132.861867,18.4154617 134.097222,18.9263572 C135.332577,19.4384968 136.786473,19.6943593 138.459739,19.6943593 C140.73057,19.6943593 141.866401,19.1457272 141.866401,18.0463895 C141.866401,17.5732305 141.53548,17.1983526 140.874467,16.9234145 C140.212625,16.6493058 139.145633,16.3747824 137.673076,16.0998443 C135.675939,15.7253811 133.997282,15.2758594 132.637106,14.7521085 C131.276515,14.2275283 130.14732,13.447915 129.248691,12.4116098 C128.350062,11.3761341 127.900955,9.99688199 127.900955,8.27426832 C127.900955,6.65242382 128.337207,5.21718888 129.211369,3.96856352 C130.084702,2.72076753 131.357794,1.74708026 133.03023,1.04791641 C134.702252,0.349581927 136.699389,-4.61852778e-14 139.020812,-4.61852778e-14 C141.392412,-4.61852778e-14 143.433092,0.317650956 145.14285,0.954611621" id="Fill-8"></path>
                        <polyline id="Fill-10" points="176.162751 19.3568033 176.162751 25.0857171 155.757202 25.0857171 155.757202 0.374048515 175.676322 0.374048515 175.676322 6.10254762 163.394925 6.10254762 163.394925 10.1092624 173.205197 10.1092624 173.205197 15.4259764 163.394925 15.4259764 163.394925 19.3568033 176.162751 19.3568033"></polyline>
                        <path d="M196.118779,11.1389326 C196.86812,10.5019719 197.242168,9.54736027 197.242168,8.27426832 C197.242168,7.00117637 196.86812,6.05278507 196.118779,5.42867973 C195.370267,4.80540376 194.1967,4.49272906 192.599322,4.49272906 L188.181237,4.49272906 L188.181237,12.0935442 L192.599322,12.0935442 C194.1967,12.0935442 195.370267,11.7750638 196.118779,11.1389326 Z M200.088172,2.45246443 C201.685135,3.83793682 202.484238,5.79111698 202.484238,8.31200492 C202.484238,10.7586637 201.685135,12.6674723 200.088172,14.040504 C198.490379,15.4135358 196.25604,16.0998443 193.385985,16.0998443 L188.181237,16.0998443 L188.181237,25.0857171 L183.01464,25.0857171 L183.01464,0.374048515 L193.385985,0.374048515 C196.25604,0.374048515 198.490379,1.06699205 200.088172,2.45246443 L200.088172,2.45246443 Z" id="Fill-11"></path>
                        <path d="M215.102363,11.6817591 L220.231638,11.6817591 C221.729491,11.6817591 222.833805,11.3885747 223.545409,10.8017913 C224.256599,10.2154225 224.612401,9.31057347 224.612401,8.08724406 C224.612401,6.86432935 224.256599,5.95948028 223.545409,5.37269686 C222.833805,4.78632812 221.729491,4.49272906 220.231638,4.49272906 L215.102363,4.49272906 L215.102363,11.6817591 Z M219.744794,15.6130007 L215.102363,15.6130007 L215.102363,25.0857171 L210.01041,25.0857171 L210.01041,0.374048515 L220.905921,0.374048515 C223.726213,0.374048515 225.928621,1.04211077 227.513973,2.37699123 C229.099325,3.71311575 229.891793,5.59165208 229.891793,8.01218555 C229.891793,9.78456177 229.454712,11.2695593 228.581379,12.4680074 C227.707217,13.6660408 226.459421,14.5273477 224.836747,15.0515132 L231.35191,25.0857171 L225.548352,25.0857171 L219.744794,15.6130007 L219.744794,15.6130007 Z" id="Fill-12"></path>
                        <path d="M243.838993,6.42102795 C242.702748,7.88155885 242.135455,9.98444136 242.135455,12.7300902 C242.135455,15.4761536 242.702748,17.5786215 243.838993,19.0391524 C244.974408,20.4988539 246.590862,21.2291193 248.687524,21.2291193 C250.759305,21.2291193 252.362488,20.4988539 253.499148,19.0391524 C254.634564,17.5786215 255.202271,15.4761536 255.202271,12.7300902 C255.202271,9.98444136 254.634564,7.88155885 253.499148,6.42102795 C252.362488,4.96091174 250.759305,4.23064629 248.687524,4.23064629 C246.590862,4.23064629 244.974408,4.96091174 243.838993,6.42102795 Z M254.996586,1.53476004 C256.780988,2.55862454 258.15402,4.02496107 259.115267,5.93418432 C260.075684,7.84382225 260.556722,10.1092624 260.556722,12.7300902 C260.556722,15.3509179 260.075684,17.6159434 259.115267,19.525996 C258.15402,21.4352192 256.780988,22.9019705 254.996586,23.9250056 C253.211355,24.9488701 251.108472,25.4601803 248.687524,25.4601803 C246.266161,25.4601803 244.157058,24.9488701 242.359801,23.9250056 C240.562543,22.9019705 239.183291,21.4352192 238.222874,19.525996 C237.261213,17.6159434 236.781004,15.3509179 236.781004,12.7300902 C236.781004,10.1092624 237.261213,7.84382225 238.222874,5.93418432 C239.183291,4.02496107 240.562543,2.55862454 242.359801,1.53476004 C244.157058,0.511724909 246.266161,0 248.687524,0 C251.108472,0 253.211355,0.511724909 254.996586,1.53476004 L254.996586,1.53476004 Z" id="Fill-14"></path>
                    </g>
                </g>
            </g>
        </g>
    </g>
</svg>