<svg xmlns="http://www.w3.org/2000/svg" width="90" height="90" viewBox="0 0 90 90">
    <g fill="none" fill-rule="evenodd">
        <circle cx="45" cy="45" r="45" fill="#DEF3F5"/>
        <g fill="#1EAFBD" fill-rule="nonzero">
            <path d="M32.914 9.78c0-.01 0-.02-.002-.032-.003-.042-.007-.083-.015-.125-.009-.041-.02-.082-.034-.122l-.01-.03c-.015-.037-.03-.074-.049-.11l-.003-.006c-.02-.037-.043-.073-.067-.107l-.02-.026c-.026-.035-.053-.068-.084-.099L23.793.286c-.031-.03-.064-.058-.099-.085l-.026-.019c-.035-.025-.07-.048-.107-.067L23.553.11c-.035-.018-.071-.034-.108-.048l-.031-.01c-.04-.014-.08-.026-.121-.034h-.001c-.041-.008-.083-.013-.125-.016l-.032-.001L23.102 0H.977C.437 0 0 .437 0 .977v41.799c0 .54.437.976.977.976h14.702v5.271c0 .356.193.683.504.855.311.172.69.162.992-.027l3.72-2.334 3.719 2.334c.158.099.338.15.519.15.162 0 .325-.041.472-.123.311-.172.504-.499.504-.855v-5.27h5.83c.54 0 .976-.438.976-.977V9.814l-.001-.033zm-8.835-6.446l5.502 5.503H24.08V3.334zm-8.882 26.83c-.068-.187-.18-.492-.183-.617.077-.094.341-.262.503-.364.348-.22.743-.47 1.029-.86.289-.393.406-.848.51-1.25.045-.175.119-.459.181-.566.034-.007.107-.017.242-.017.109 0 .23.006.36.012.147.007.3.015.46.015.351 0 .635-.04.892-.125.45-.15.81-.44 1.127-.695.176-.141.47-.378.572-.392.111.014.405.25.58.392.318.256.678.545 1.128.695.257.085.54.125.893.125.159 0 .312-.008.46-.015.128-.006.25-.012.359-.012.135 0 .207.01.242.017.062.107.136.39.18.566.104.402.222.857.511 1.25.286.39.68.64 1.028.86.162.102.427.27.503.364-.002.125-.114.43-.183.616-.145.396-.31.844-.31 1.341s.165.946.31 1.342c.069.187.18.491.183.616-.076.095-.34.262-.503.364-.348.22-.742.47-1.028.86-.289.394-.407.849-.51 1.25-.045.175-.119.459-.181.566-.035.007-.107.018-.242.018-.11 0-.23-.006-.36-.013-.147-.007-.3-.015-.46-.015-.352 0-.635.04-.892.126-.45.15-.81.44-1.128.694-.173.14-.46.371-.576.392-.115-.02-.403-.252-.575-.392-.318-.255-.678-.545-1.128-.694-.257-.086-.54-.126-.893-.126-.159 0-.312.008-.46.015-.128.007-.25.013-.36.013-.134 0-.206-.01-.24-.018-.063-.107-.137-.39-.182-.566-.103-.401-.221-.856-.51-1.25-.286-.39-.68-.64-1.029-.86-.161-.102-.426-.27-.502-.364.002-.124.114-.43.182-.616.146-.396.31-.844.31-1.341 0-.498-.165-.946-.31-1.342zm8.96 17.094l-2.744-1.72c-.317-.2-.72-.2-1.038 0l-2.743 1.72V38.47c.104-.003.206-.007.305-.012.129-.007.251-.013.361-.013.174 0 .248.016.276.025.116.04.34.22.52.364.456.367 1.023.824 1.8.824.778 0 1.345-.457 1.8-.824.18-.145.404-.325.52-.363.029-.01.103-.026.276-.026.11 0 .232.006.362.013.099.005.2.009.304.012v8.788zm1.952-5.459v-4.116c.29-.395.412-.862.515-1.258.053-.209.127-.494.194-.585.067-.091.315-.248.496-.363.481-.303 1.08-.681 1.317-1.396.235-.705-.01-1.372-.206-1.907-.09-.243-.19-.52-.19-.67 0-.15.1-.425.19-.668.196-.536.44-1.203.206-1.908-.238-.714-.836-1.093-1.317-1.396-.18-.115-.43-.272-.496-.363-.067-.091-.14-.376-.194-.584-.14-.544-.316-1.22-.914-1.66-.476-.348-1.027-.388-1.4-.388-.158 0-.311.007-.458.015-.13.006-.252.012-.361.012-.174 0-.248-.016-.277-.025-.116-.039-.34-.219-.519-.364-.456-.366-1.023-.823-1.8-.823-.778 0-1.345.457-1.801.823-.18.145-.404.325-.52.364-.028.01-.102.025-.276.025-.11 0-.232-.006-.361-.013-.148-.007-.3-.014-.458-.014-.373 0-.924.04-1.4.389-.599.438-.774 1.115-.914 1.659-.054.208-.127.493-.194.584-.067.091-.316.248-.497.363-.48.303-1.078.682-1.316 1.396-.235.706.01 1.372.206 1.908.089.243.19.518.19.668 0 .15-.101.427-.19.67-.197.535-.441 1.202-.206 1.907.238.715.836 1.093 1.316 1.396.182.115.43.272.497.363.067.091.14.376.194.585.103.396.224.864.515 1.258v4.116H1.953V1.953h20.173v7.86c0 .54.437.977.976.977h7.86V41.8H26.11z" transform="translate(28 20)"/>
            <path d="M5.748 10.79H18.33c.539 0 .977-.437.977-.976 0-.54-.438-.977-.977-.977H5.748c-.539 0-.976.437-.976.977s.437.976.976.976zM27.276 13.766H5.748c-.539 0-.976.438-.976.977 0 .54.437.977.976.977h21.528c.54 0 .977-.438.977-.977 0-.54-.437-.977-.977-.977zM23.37 18.696H5.748c-.539 0-.976.437-.976.976 0 .54.437.977.976.977H23.37c.54 0 .977-.437.977-.977 0-.539-.438-.976-.977-.976zM27.276 18.696c-.538 0-.976.439-.976.976 0 .538.438.977.976.977s.977-.439.977-.977c0-.537-.439-.976-.977-.976z" transform="translate(28 20)"/>
        </g>
    </g>
</svg>
