<?xml version="1.0" encoding="UTF-8"?>
<svg width="23px" height="14px" viewBox="0 0 23 14" version="1.1" xmlns="http://www.w3.org/2000/svg" xmlns:xlink="http://www.w3.org/1999/xlink">
    <!-- Generator: Sketch 56.2 (81672) - https://sketch.com -->
    <title>education</title>
    <desc>Created with Sketch.</desc>
    <g id="Registration-New" stroke="none" stroke-width="1" fill="none" fill-rule="evenodd" opacity="0.25">
        <g id="diversepro-step-3" transform="translate(-748.000000, -443.000000)" fill="#04002C">
            <g id="profiles" transform="translate(180.000000, 350.000000)">
                <g id="1">
                    <g id="info" transform="translate(182.000000, 45.000000)">
                        <g id="education" transform="translate(386.000000, 45.000000)">
                            <path d="M20.6468961,12.3546887 L20.6342307,10.1796721 L22.7261369,9.00909949 L11.3318674,3 L-3.69482223e-13,9.12928148 L4.54324901,11.7377853 L4.55230888,13.2877632 L4.55323336,13.4115507 L4.59474237,13.3916744 C4.54685447,13.4566651 4.51616184,13.5235048 4.51708631,13.5903445 C4.52069177,14.3526681 7.59799785,14.9559817 11.3961185,14.9352734 C15.1923902,14.9153972 18.2651664,14.276861 18.2624854,13.5162939 C18.2624854,13.4494542 18.2272628,13.3844635 18.1802994,13.3176238 L18.2218084,13.3375001 L18.2218084,13.2137126 L18.213673,11.6574483 L20.1836407,10.4317769 L20.1944571,12.3574622 C19.9776673,12.4504645 19.8268851,12.6636489 19.8286416,12.9129803 C19.8304906,13.2399678 20.0960003,13.504553 20.4256688,13.5018721 C20.7571862,13.5000231 21.0200149,13.2326644 21.018166,12.9066014 C21.016317,12.65727 20.8646104,12.4459346 20.6468961,12.3546887 Z M11.3933451,14.4104479 C8.02344209,14.4293997 5.2902263,14.0590543 5.28754334,13.586739 C5.28486433,13.1143314 8.01438222,12.7178233 11.3843777,12.700628 C14.7552051,12.6816762 17.4874965,13.0501727 17.4893472,13.5216559 C17.4919339,13.992307 14.7641726,14.3924206 11.3933451,14.4104479 Z M18.0582685,10.3947054 C17.6021316,9.9150868 15.9672867,8.64873842 11.3626525,8.67499356 C6.7516393,8.69939975 5.13759517,9.98109445 4.68691271,10.467924 L4.68423173,10.0091061 C4.68423173,10.0091061 5.99208912,8.01926214 11.3591394,7.99125049 C16.7234163,7.96231436 18.0556799,9.93681201 18.0556799,9.93681201 L18.0582685,10.3947054 Z M19.9460502,13.6318535 L19.713914,17 C20.4319552,15.8718609 21.0317558,16.2918507 21.0317558,16.2918507 L21.0173339,13.6263991 C20.245858,13.9290728 19.9460502,13.6318535 19.9460502,13.6318535 Z"></path>
                        </g>
                    </g>
                </g>
            </g>
        </g>
    </g>
</svg>