<svg xmlns="http://www.w3.org/2000/svg" width="20" height="20" viewBox="0 0 20 20">
    <g fill="#DC1E1E" fill-rule="nonzero">
        <path d="M10.833 15a.833.833 0 1 1-1.666 0 .833.833 0 0 1 1.666 0zM10 12.5a.625.625 0 0 1-.625-.625V4.792a.625.625 0 0 1 1.25 0v7.083c0 .345-.28.625-.625.625z"/>
        <path d="M10 20C4.486 20 0 15.514 0 10S4.486 0 10 0s10 4.486 10 10-4.486 10-10 10zm0-18.75c-4.825 0-8.75 3.925-8.75 8.75s3.925 8.75 8.75 8.75 8.75-3.925 8.75-8.75S14.825 1.25 10 1.25z"/>
    </g>
</svg>
