<svg xmlns="http://www.w3.org/2000/svg" width="90" height="90" viewBox="0 0 90 90">
    <g fill="none" fill-rule="evenodd">
        <circle cx="45" cy="45" r="45" fill="#DEF3F5"/>
        <g fill="#1EAFBD" fill-rule="nonzero">
            <path d="M48.943 2.733h-1.427v-1.62c0-.584-.473-1.058-1.057-1.058s-1.057.474-1.057 1.057v1.621H7.206v-1.62c0-.584-.473-1.058-1.057-1.058S5.092.53 5.092 1.112v1.621H3.277c-.47 0-.884.31-1.015.763l-2.22 7.646c-.079.27-.046.562.092.809l2.22 3.982c.186.335.54.542.923.542h3.128L.587 36.02c-.225.757-.084 1.554.388 2.187.472.633 1.195.996 1.985.996h10.707c1.163 0 2.156-.792 2.414-1.926l2.782-12.204h4.94c3.127 0 5.672-2.545 5.672-5.673v-2.925h19.468c.584 0 1.057-.473 1.057-1.057V3.79c0-.584-.473-1.057-1.057-1.057zm-30.25 2.114H40.68V7.49H18.693V4.847zm5.11 18.112h-4.458l.92-4.036c.657 1.304 1.974 2.182 3.468 2.254l.052.001c.56 0 1.028-.44 1.055-1.006.028-.583-.422-1.079-1.005-1.107-.847-.04-1.577-.615-1.816-1.428l-.341-1.162h5.683V19.4c0 1.962-1.597 3.559-3.559 3.559zm24.083-8.598H19.979c-.493 0-.921.341-1.03.822L14.02 36.807c-.038.166-.183.281-.353.281H2.96c-.158 0-.25-.09-.29-.145-.04-.055-.102-.168-.057-.32L8.836 15.72c.095-.32.033-.666-.166-.934-.2-.267-.514-.425-.848-.425H3.898l-1.06-1.903h2.659c.584 0 1.057-.473 1.057-1.057 0-.583-.473-1.057-1.057-1.057H2.475L4.07 4.847h12.508v3.7c0 .584.473 1.057 1.057 1.057h24.101c.584 0 1.057-.473 1.057-1.057v-3.7h5.092v9.514z" transform="translate(20 25)"/>
            <path d="M12.426 14.774c-.56-.168-1.148.152-1.315.711L6.86 29.767c-.167.56.152 1.148.711 1.315.101.03.203.044.302.044.456 0 .877-.297 1.013-.755l4.252-14.282c.166-.56-.152-1.149-.712-1.315zM7.05 32.834c-.56-.166-1.149.153-1.315.712l-.02.07c-.167.559.151 1.147.71 1.314.101.03.203.044.303.044.455 0 .876-.297 1.012-.755l.021-.07c.167-.56-.152-1.148-.711-1.315zM9.857 12.458h.106c.584 0 1.057-.473 1.057-1.057 0-.583-.473-1.057-1.057-1.057h-.106c-.583 0-1.057.473-1.057 1.057s.474 1.057 1.057 1.057z" transform="translate(20 25)"/>
        </g>
    </g>
</svg>
