<?xml version="1.0" encoding="UTF-8"?>
<svg width="22px" height="30px" viewBox="0 0 22 30" version="1.1" xmlns="http://www.w3.org/2000/svg" xmlns:xlink="http://www.w3.org/1999/xlink">
    <!-- Generator: Sketch 56.2 (81672) - https://sketch.com -->
    <title>hourglass</title>
    <desc>Created with Sketch.</desc>
    <g id="Registration-New" stroke="none" stroke-width="1" fill="none" fill-rule="evenodd">
        <g id="diversepro-step-6" transform="translate(-1061.000000, -510.000000)" fill="#FFFFFF" fill-rule="nonzero">
            <g id="reason-4" transform="translate(1012.000000, 470.000000)">
                <g id="hourglass" transform="translate(49.000000, 40.000000)">
                    <path d="M10.862069,17.5862069 C10.5764426,17.5862069 10.3448276,17.7953201 10.3448276,18.0532996 L10.3448276,18.153597 C10.3448276,18.4115765 10.5764426,18.6206897 10.862069,18.6206897 C11.1476953,18.6206897 11.3793103,18.4115765 11.3793103,18.153597 L11.3793103,18.0532996 C11.3793103,17.7953201 11.1476953,17.5862069 10.862069,17.5862069 Z" id="Path"></path>
                    <path d="M17.4864894,11.0225606 C17.4865476,11.022502 17.4865476,11.0224434 17.4866059,11.0223848 C18.5030008,9.16783041 19.0775735,6.97893941 19.1618605,4.65950129 L19.4718641,4.65950129 C20.7137427,4.65950129 21.7241379,3.64313212 21.7241379,2.39391093 L21.7241379,0.597598823 C21.7241379,0.267539585 21.4581126,0 21.1300516,0 L0.594086292,0 C0.266025306,0 0,0.267539585 0,0.597598823 L0,2.39391093 C0,3.64313212 1.01039522,4.65950129 2.25227381,4.65950129 L2.56227746,4.65950129 C2.64656444,6.97888082 3.22113716,9.16771322 4.23747382,11.0223262 C5.27833351,12.9214705 6.67923314,14.2876451 8.26390983,15.000498 C7.36168387,15.4080184 6.51374641,16.0313985 5.7474747,16.8586267 C4.36358391,18.352653 3.33961657,20.4605087 2.86400969,22.7938336 C2.86400969,22.7938336 2.86400969,22.7938922 2.86400969,22.7939508 C2.69514449,23.6224094 2.59524666,24.4766494 2.5632677,25.3405573 L2.25227381,25.3405573 C1.01039522,25.3405573 0,26.3569265 0,27.6061477 L0,29.4024012 C0,29.7324604 0.266025306,30 0.594086292,30 L21.1300516,30 C21.4581126,30 21.7241379,29.7324604 21.7241379,29.4024012 L21.7241379,27.6060891 C21.7241379,26.3568679 20.7137427,25.3404987 19.4718641,25.3404987 L19.1608702,25.3404987 C19.1288913,24.4766494 19.0289934,23.6223508 18.8601282,22.7938922 L18.8601282,22.7938336 C18.3845796,20.4603915 17.360554,18.3525944 15.9766632,16.8585681 C15.2103915,16.0312813 14.3624541,15.4079598 13.4602281,15.0004395 C15.0449048,14.2877037 16.4456879,12.9215877 17.4864894,11.0225606 Z M2.25227381,3.46430364 C1.66552695,3.46430364 1.18817258,2.98412692 1.18817258,2.39391093 L1.18817258,1.19519765 L20.5359071,1.19519765 L20.5359071,2.39391093 C20.5359071,2.98412692 20.0585527,3.46430364 19.4718059,3.46430364 L18.5790163,3.46430364 L3.14506336,3.46430364 L2.25227381,3.46430364 Z M3.75091604,4.65950129 L17.9733384,4.65950129 C17.8954589,6.64782548 17.4285894,8.52370805 16.6093107,10.1362698 L5.11494376,10.1362698 C4.29554854,8.52364946 3.82873733,6.64782548 3.75091604,4.65950129 Z M19.4718059,26.535755 C20.058611,26.535755 20.5359653,27.0159317 20.5359653,27.6061477 L20.5359653,28.8048609 L1.18817258,28.8048609 L1.18817258,27.6061477 C1.18817258,27.0159317 1.66552695,26.535755 2.25227381,26.535755 L3.14506336,26.535755 L18.5789581,26.535755 L19.4718059,26.535755 Z M17.9729889,25.3405573 L3.75114904,25.3405573 C3.77788554,24.6717669 3.84941589,24.010125 3.96498283,23.3639519 L5.94890135,22.6627005 L10.862069,20.9260956 L15.7752948,22.6627005 L17.7592134,23.3639519 C17.874722,24.0100664 17.9462524,24.6717669 17.9729889,25.3405573 Z M17.4380841,21.983539 L11.0590104,19.7287885 C10.9952855,19.7062299 10.9286481,19.6950385 10.862069,19.6950385 C10.7954898,19.6950385 10.7288524,19.7062885 10.6651275,19.7287885 L4.28605388,21.983539 C5.30606026,18.4561298 7.63161189,15.9916719 10.2679827,15.6667103 L10.2679827,16.5076494 C10.2679827,16.8377087 10.534008,17.1052483 10.862069,17.1052483 C11.19013,17.1052483 11.4561553,16.8377087 11.4561553,16.5076494 L11.4561553,15.6667103 C14.092526,15.9916719 16.4180777,18.4561298 17.4380841,21.983539 Z M10.862069,14.370321 C8.95352525,14.370321 7.1570535,13.2755533 5.82185927,11.3314089 L15.9022204,11.3314089 C14.5670844,13.2755533 12.7706709,14.370321 10.862069,14.370321 Z" id="Shape"></path>
                    <path d="M10.7865916,6.20689655 L5.76513252,6.20689655 C5.43782672,6.20689655 5.17241379,6.43846084 5.17241379,6.72413793 C5.17241379,7.00981503 5.43782672,7.24137931 5.76513252,7.24137931 L10.7865335,7.24137931 C11.1138974,7.24137931 11.3793103,7.00981503 11.3793103,6.72413793 C11.3793103,6.43846084 11.1138974,6.20689655 10.7865916,6.20689655 Z" id="Path"></path>
                    <path d="M12.7747129,6.20689655 L12.0528733,6.20689655 C11.6809244,6.20689655 11.3793103,6.43846084 11.3793103,6.72413793 C11.3793103,7.00981503 11.6809244,7.24137931 12.0528733,7.24137931 L12.7747129,7.24137931 C13.1466618,7.24137931 13.4482759,7.00981503 13.4482759,6.72413793 C13.4483419,6.43846084 13.1466618,6.20689655 12.7747129,6.20689655 Z" id="Path"></path>
                </g>
            </g>
        </g>
    </g>
</svg>