<?xml version="1.0" encoding="UTF-8"?>
<svg width="15px" height="15px" viewBox="0 0 15 15" version="1.1" xmlns="http://www.w3.org/2000/svg" xmlns:xlink="http://www.w3.org/1999/xlink">
    <!-- Generator: Sketch 56.2 (81672) - https://sketch.com -->
    <title>info</title>
    <desc>Created with Sketch.</desc>
    <g id="Registration-New" stroke="none" stroke-width="1" fill="none" fill-rule="evenodd">
        <g id="diversepro-step-6-info" transform="translate(-731.000000, -847.000000)" fill="#1EAFBD" fill-rule="nonzero">
            <g id="categories" transform="translate(180.000000, 640.000000)">
                <g id="info" transform="translate(551.000000, 207.000000)">
                    <path d="M7.4997,0 C3.3644625,0 0,3.3645 0,7.5 C0,11.6355 3.3644625,15 7.4997,15 C11.6352375,15 15,11.6355 15,7.5 C15,3.3645 11.6352375,0 7.4997,0 Z M7.4997,14.016375 C3.90675,14.016375 0.983625,11.0931 0.983625,7.5 C0.983625,3.9068625 3.9067125,0.9836625 7.4997,0.9836625 C11.0931,0.9836625 14.0163,3.9069 14.0163,7.5 C14.0163,11.0931 11.0931,14.016375 7.4997,14.016375 Z" id="Shape"></path>
                    <path d="M7.25,5 C7.66411253,5 8,4.66413174 8,4.25 C8,3.83586826 7.66411253,3.5 7.25,3.5 C6.83554437,3.5 6.5,3.83586826 6.5,4.25 C6.5,4.66413174 6.83554437,5 7.25,5 Z" id="Path"></path>
                    <path d="M8.47113136,10.5425144 L8.02886864,10.5425144 L8.02886864,5.97877932 C8.02886864,5.7143848 7.79215386,5.5 7.50016128,5.5 L6.52870736,5.5 C6.23671478,5.5 6,5.7143848 6,5.97877932 C6,6.24317385 6.23671478,6.45752215 6.52870736,6.45752215 L6.97129264,6.45752215 L6.97129264,10.5425144 L6.52870736,10.5425144 C6.23671478,10.5425144 6,10.7568626 6,11.0212572 C6,11.2856152 6.23671478,11.5 6.52870736,11.5 L8.47113136,11.5 C8.76328522,11.5 9,11.2856152 9,11.0212572 C9,10.7568626 8.76328522,10.5425144 8.47113136,10.5425144 Z" id="Path"></path>
                </g>
            </g>
        </g>
    </g>
</svg>