<?xml version="1.0" encoding="UTF-8"?>
<svg width="16px" height="16px" viewBox="0 0 16 16" version="1.1" xmlns="http://www.w3.org/2000/svg" xmlns:xlink="http://www.w3.org/1999/xlink">
    <!-- Generator: Sketch 55.2 (78181) - https://sketchapp.com -->
    <title>linkedin_white</title>
    <desc>Created with Sketch.</desc>
    <g id="Desktop" stroke="none" stroke-width="1" fill="none" fill-rule="evenodd">
        <g id="diversepro-home-main_color" transform="translate(-50.000000, -834.000000)" fill="#FFFFFF">
            <g id="Main">
                <g id="left-panel">
                    <g id="sn" transform="translate(49.000000, 744.000000)">
                        <path d="M1.40357479,95.1304905 L4.52210724,95.1304905 L4.52210724,105.998976 L1.40357479,105.998976 L1.40357479,95.1304905 Z M2.88334901,93.7710334 L2.8607714,93.7710334 C1.73189087,93.7710334 1,92.9401972 1,91.8880779 C1,90.8144449 1.75352775,90 2.90498589,90 C4.05550329,90 4.76293509,90.812396 4.7855127,91.8850045 C4.7855127,92.9371238 4.05550329,93.7710334 2.88334901,93.7710334 L2.88334901,93.7710334 Z M17,106 L13.4637817,106 L13.4637817,100.374696 C13.4637817,98.9025483 12.9106303,97.8985786 11.6942615,97.8985786 C10.7638758,97.8985786 10.2464722,98.5757459 10.0056444,99.2303752 C9.91533396,99.4639519 9.92944497,99.7907543 9.92944497,100.118581 L9.92944497,106 L6.4261524,106 C6.4261524,106 6.47130762,96.0361122 6.4261524,95.1304905 L9.92944497,95.1304905 L9.92944497,96.8362146 C10.1364064,96.0904085 11.2558796,95.0259956 13.042333,95.0259956 C15.2587018,95.0259956 17,96.5903445 17,99.9556922 L17,106 L17,106 Z" id="linkedin_white"></path>
                    </g>
                </g>
            </g>
        </g>
    </g>
</svg>