<svg xmlns="http://www.w3.org/2000/svg" width="70" height="67" viewBox="0 0 70 67">
    <g fill="#1EAFBD">
        <path d="M69.998 28.266c-.018-.926-.252-1.8-.678-2.624-.446-.861-1.148-1.561-1.923-2.131l-8.448-6.573v-6.816c0-.755-.612-1.367-1.367-1.367H48.43L39.053 1.46c-2.386-1.857-5.72-1.857-8.106 0L21.57 8.755h-9.15c-.756 0-1.368.612-1.368 1.367v6.816l-8.461 6.584C1.094 24.72 0 26.414 0 28.38v32.413c0 3.23 2.628 5.86 5.86 5.86h22.027c.756 0 1.368-.613 1.368-1.368 0-.755-.612-1.367-1.368-1.367H5.86c-1.723 0-3.125-1.402-3.125-3.125V28.38c0-.114.008-.228.022-.34l31.504 20.32.01.005.01.008 25.064 15.545H39.895c-.755 0-1.367.612-1.367 1.367s.612 1.367 1.367 1.367h24.247c3.23 0 5.858-2.628 5.858-5.859V28.38c0-.038 0-.075-.002-.113zm-4.265-2.586c.01.009.02.016.032.024l.024.019-6.84 4.412v-9.732l6.784 5.277zM32.626 3.618c1.398-1.087 3.35-1.087 4.748 0l6.602 5.137H26.023l6.603-5.137zM4.284 25.67l6.768-5.266v9.733l-6.836-4.41.068-.057zm9.503-14.18h42.428V31.9L35 45.582 13.787 31.899V11.49zm53.479 49.303c0 1.563-1.213 2.929-2.768 3.104l-26.94-16.709 29.694-19.154.003.024.002.035c.004.047.006.093.006.139v.038l.001.037v.036l.002.037v32.413z"/>
        <path d="M35.295 64.762c-.472-1.152-2.171-1.077-2.56.094-.4 1.21 1 2.269 2.057 1.564.535-.356.75-1.064.503-1.658zM24.387 21.871h21.499c.755 0 1.367-.612 1.367-1.367s-.612-1.367-1.367-1.367H24.387c-.755 0-1.367.612-1.367 1.367s.612 1.367 1.367 1.367zM47.253 29.365c0-.755-.612-1.367-1.367-1.367H24.387c-.755 0-1.367.612-1.367 1.367s.612 1.367 1.367 1.367h21.499c.755 0 1.367-.612 1.367-1.367z"/>
    </g>
</svg>
