<svg xmlns="http://www.w3.org/2000/svg" width="90" height="90" viewBox="0 0 90 90">
    <g fill="none" fill-rule="evenodd">
        <circle cx="45" cy="45" r="45" fill="#DEF3F5"/>
        <g fill="#1EAFBD" fill-rule="nonzero">
            <path d="M38.715 48.243l-5.245-5.246c-.183-.183-.432-.286-.69-.286h-.002l-2.814.004h-.018c-1.554 0-3.11-.285-4.566-.83l1.689-1.133c.69-.463 1.156-1.169 1.308-1.987.153-.818-.026-1.644-.503-2.326-.594-.848-1.55-1.308-2.523-1.308h-.047l3.89-3.889c1.18-1.18 1.18-3.1 0-4.28-.288-.287-.622-.51-.987-.66.27-.459.415-.983.415-1.53 0-.809-.315-1.569-.887-2.14-.571-.572-1.331-.887-2.14-.887-.547 0-1.071.145-1.53.415-.15-.365-.373-.7-.66-.987-.572-.571-1.332-.886-2.14-.886-.809 0-1.569.315-2.14.886l-1.397 1.397c-.149-.327-.356-.629-.617-.89-.572-.572-1.332-.887-2.14-.887-.81 0-1.57.315-2.14.886l-.62.62-2.517-2.503c-.73-.731-.73-1.92 0-2.652.685-.685 1.772-.728 2.508-.13l2.437 2.438c.191.19.441.286.69.286.25 0 .5-.096.691-.286.382-.382.382-1 0-1.381l-4.204-4.205c-.731-.731-.731-1.92 0-2.652.73-.73 1.92-.73 2.651 0l7.367 7.381c.191.191.441.286.69.286.25 0 .5-.095.691-.286.382-.381.382-1 0-1.38l-5.6-5.615c-.597-.735-.554-1.822.13-2.507.732-.731 1.922-.731 2.653 0l2.051 2.052c.382.381 1 .381 1.381 0 .382-.382.382-1 0-1.381L21.78 7.712c-1.493-1.493-3.922-1.493-5.414 0-.494.493-.823 1.089-.99 1.72-.646-.468-1.42-.72-2.233-.72-1.023 0-1.984.398-2.707 1.121-1.344 1.344-1.477 3.445-.402 4.94-.63.168-1.226.497-1.72.99-1.408 1.409-1.487 3.65-.237 5.153-.616.17-1.198.496-1.681.98-1.493 1.492-1.493 3.921 0 5.414l.435.436c-1.647 1.978-2.543 4.447-2.54 7.054l.003 1.618-4.007 4.007c-.381.381-.381 1 0 1.381.19.19.44.286.69.286.25 0 .5-.095.691-.286l4.294-4.293c.183-.184.286-.433.286-.692l-.003-2.023c-.004-2.427.94-4.71 2.656-6.426l4.846-4.846.465-.465c.203-.203.472-.315.76-.315.286 0 .556.112.758.315.203.202.315.472.315.759 0 .246-.083.48-.235.669l-1.29 1.29c-.382.382-.382 1 0 1.382l.002.002.002.003c.191.19.441.286.691.286.25 0 .5-.095.69-.286l4.601-4.611c.203-.203.473-.315.76-.315.286 0 .556.112.759.315.39.39.416 1.006.08 1.427l-4.687 4.697c-.38.381-.38 1 0 1.381.191.19.441.286.691.286.25 0 .5-.095.69-.286l6.038-6.047c.202-.203.472-.315.759-.315.286 0 .556.112.759.315.418.418.418 1.1 0 1.518l-6.047 6.037c-.382.381-.382 1 0 1.381.381.381 1 .381 1.38 0l4.697-4.686c.421-.336 1.038-.31 1.428.08.418.419.418 1.1 0 1.518l-6.593 6.594c-.465.464-.508 1.176-.102 1.693.405.517 1.107.645 1.669.304l1.991-1.207c.503-.305 1.16-.167 1.497.315.174.248.239.549.183.847-.056.298-.225.555-.477.723l-4.608 3.09c-1.5 1.006-3.246 1.537-5.05 1.537h-.014l-3.13-.004h-.001c-.259 0-.507.103-.69.286l-4.294 4.294c-.382.38-.382 1 0 1.38.19.191.44.287.69.287.25 0 .5-.096.69-.286l4.008-4.007 2.725.004h.015c2.194 0 4.316-.646 6.139-1.868l.987-.662c2.016.973 4.26 1.488 6.498 1.488h.022l2.408-.004 4.959 4.959c.19.19.44.286.69.286.25 0 .5-.095.69-.286.382-.381.382-1 0-1.381zM10.19 24.319l-2.013 2.013-.402-.403c-.731-.731-.731-1.92 0-2.652.685-.685 1.772-.728 2.507-.13l.54.54-.632.632zM49.714 37.244c-.182-.182-.434-.286-.69-.286-.257 0-.51.104-.691.286-.182.182-.286.433-.286.69 0 .258.104.51.286.691.182.182.434.286.69.286.257 0 .51-.104.69-.286.183-.183.287-.433.287-.69 0-.258-.104-.509-.286-.69zM47.088 34.618l-2.333-2.333.006-3.948c.004-2.983-.872-5.87-2.533-8.347l-4.299-6.41c-.587-.876-1.48-1.465-2.517-1.658-1.036-.194-2.083.033-2.946.637-1.415.991-1.977 2.779-1.477 4.363l-2.552-2.552c-.382-.382-1-.382-1.382 0-.38.381-.38 1 0 1.38l5.483 5.484c.508.507 1.286.554 1.85.111.564-.443.704-1.21.332-1.823l-1.68-2.77c-.527-.87-.287-2.01.546-2.593.43-.3.952-.414 1.467-.317.517.096.962.39 1.254.825l4.298 6.41c1.445 2.155 2.206 4.664 2.203 7.257l-.006 4.354c0 .26.102.508.286.692L45.707 36c.19.19.44.285.69.285.25 0 .5-.095.69-.286.382-.381.382-1 0-1.381z" transform="translate(20 20)"/>
            <path d="M26.14 12.074c-.18-.181-.432-.286-.689-.286-.258 0-.509.105-.691.286-.182.182-.286.434-.286.69 0 .259.104.51.286.691.182.182.433.286.691.286.257 0 .508-.104.69-.286.182-.181.287-.433.287-.69 0-.257-.105-.509-.287-.69zM35.204 27.229c.381-.381.381-1 0-1.381-.382-.381-1-.381-1.382 0l-.426.426c-1.823 1.823-1.823 4.79 0 6.614.191.191.441.287.691.287.25 0 .5-.096.69-.287.382-.38.382-1 0-1.38-1.062-1.063-1.062-2.791 0-3.853l.427-.426zM46.611 5.274c-.62 0-1.227.176-1.752.498-.525-.322-1.132-.498-1.752-.498-1.869 0-3.39 1.548-3.39 3.45 0 1.079.776 2.374 2.371 3.96 1.074 1.067 2.133 1.88 2.178 1.914.175.134.384.2.593.2.209 0 .418-.066.593-.2.045-.034 1.104-.847 2.178-1.914C49.225 11.098 50 9.803 50 8.724c0-1.902-1.52-3.45-3.389-3.45zm-1.752 7.299c-1.632-1.355-3.188-3.085-3.188-3.849 0-.825.644-1.497 1.436-1.497.393 0 .76.163 1.034.46.185.2.445.314.718.314.273 0 .533-.114.718-.315.273-.296.64-.46 1.034-.46.792 0 1.436.673 1.436 1.498 0 .762-1.556 2.492-3.188 3.849zM6.893 0C6.273 0 5.666.176 5.141.5 4.616.176 4.01 0 3.39 0 1.52 0 0 1.548 0 3.45c0 1.08.775 2.374 2.37 3.96 1.074 1.068 2.133 1.88 2.178 1.915.175.134.384.2.593.2.21 0 .418-.066.593-.2.045-.034 1.104-.847 2.178-1.915 1.595-1.586 2.37-2.88 2.37-3.959 0-1.903-1.52-3.45-3.389-3.45zM5.141 7.3C3.509 5.944 1.953 4.215 1.953 3.45c0-.825.644-1.497 1.436-1.497.394 0 .76.164 1.034.46.185.2.445.314.718.314.273 0 .533-.114.718-.314.273-.296.64-.46 1.034-.46.792 0 1.436.672 1.436 1.498 0 .762-1.556 2.492-3.188 3.849z" transform="translate(20 20)"/>
        </g>
    </g>
</svg>
