<svg xmlns="http://www.w3.org/2000/svg" width="90" height="90" viewBox="0 0 90 90">
    <g fill="none" fill-rule="evenodd">
        <circle cx="45" cy="45" r="45" fill="#DEF3F5"/>
        <g fill="#1EAFBD" fill-rule="nonzero">
            <path d="M28.444 7.883c.613 0 1.111-.498 1.111-1.111v-5.66C29.555.498 29.058 0 28.444 0s-1.111.497-1.111 1.11v5.66c0 .614.497 1.112 1.11 1.112zM20.09 9.708c.211.335.572.519.941.519.203 0 .408-.055.592-.171.519-.327.674-1.014.347-1.533l-2.96-4.697c-.328-.52-1.014-.675-1.533-.348-.519.328-.674 1.014-.347 1.533l2.96 4.697zM35.269 10.056c.184.116.389.17.59.17.37 0 .73-.183.942-.518l2.957-4.698c.327-.519.171-1.205-.348-1.532-.52-.327-1.205-.17-1.532.348L34.92 8.524c-.327.52-.171 1.205.348 1.532z" transform="translate(17 20)"/>
            <path d="M56.53 26.16l-1.93-3.411c-.302-.535-.98-.722-1.514-.42s-.722.98-.42 1.514l1.93 3.41c.097.17.072.336.048.419-.023.08-.085.228-.248.318l-2.976 1.648c-.264.146-.609.054-.753-.2L49.91 28.1l-.01-.018-7.814-13.821c-.097-.17-.072-.333-.05-.416.023-.079.085-.226.248-.316l2.98-1.649c.267-.148.603-.058.75.202l1.741 3.077c.303.534.98.721 1.515.42.534-.303.721-.981.42-1.515l-1.742-3.076c-.742-1.316-2.429-1.788-3.76-1.052l-2.979 1.648c-.645.357-1.11.945-1.311 1.659-.19.672-.122 1.374.188 1.99l-1.64.476c-.7.202-1.124.312-1.36.312h-.002c-.162-.001-.339-.063-.843-.254-.23-.087-.514-.195-.865-.317l-2.907-1.016c-1.608-.562-2.333-.532-3.384-.436l-4.957.444c-2.26.2-3.7.71-4.496 1.594l-2.825-.818c.304-.614.37-1.31.181-1.975-.2-.713-.666-1.302-1.31-1.658l-2.977-1.65c-1.332-.736-3.02-.264-3.763 1.052L.361 26.158c-.367.646-.458 1.398-.256 2.117.202.714.667 1.303 1.31 1.66l2.978 1.648c.425.236.888.347 1.344.347.97 0 1.912-.504 2.418-1.398l.315-.557c.858.378 1.58.927 2.07 1.577-.48.56-.782 1.253-.866 2.005-.112.995.169 1.972.791 2.75.617.772 1.5 1.259 2.487 1.373-.105.987.177 1.954.795 2.724.638.798 1.54 1.264 2.485 1.374-.104.985.177 1.95.793 2.721.616.773 1.5 1.261 2.487 1.376-.105.987.178 1.955.795 2.725.736.92 1.823 1.4 2.92 1.4.82 0 1.645-.268 2.333-.818l2.327-1.861c.184-.148.352-.31.503-.486l1.33 1.061c.686.549 1.51.815 2.327.815 1.098 0 2.187-.48 2.924-1.401.389-.486.635-1.04.746-1.613.388.135.799.204 1.217.204.14 0 .281-.008.423-.024.995-.11 1.885-.6 2.504-1.375.619-.771.901-1.738.797-2.725.943-.11 1.846-.575 2.486-1.373.638-.798.894-1.78.794-2.724.986-.115 1.868-.601 2.483-1.371.623-.777.906-1.752.795-2.746-.083-.755-.386-1.45-.867-2.011.49-.65 1.21-1.2 2.069-1.577l.315.557c.506.894 1.448 1.398 2.418 1.398.456 0 .92-.112 1.345-.347l2.976-1.648c.643-.356 1.108-.944 1.31-1.657.204-.719.115-1.47-.251-2.119zM6.222 29.436c-.144.255-.49.347-.752.202l-2.977-1.65c-.163-.09-.225-.236-.248-.316-.023-.083-.048-.247.05-.42l8.58-15.172c.098-.174.283-.272.475-.272.094 0 .19.023.277.072l2.976 1.649h.001c.163.09.225.237.247.317.023.082.048.245-.05.417L6.221 29.437zm8.109 5.718c-.314.251-.71.365-1.114.32-.404-.045-.765-.242-1.015-.556-.251-.313-.364-.709-.319-1.113.045-.403.243-.762.557-1.012l4.16-3.325c.653-.521 1.609-.414 2.13.237.251.314.365.709.32 1.112-.046.402-.243.76-.556 1.01l-.02.016-4.142 3.31-.001.001zm1.151 3.86c-.25-.313-.364-.707-.32-1.11.046-.403.243-.763.557-1.015l5.993-4.788c.652-.52 1.608-.414 2.13.238.25.313.364.708.319 1.11-.045.404-.243.764-.557 1.016l-5.99 4.785c-.654.521-1.61.416-2.132-.237zm4.296 4.654c-.405-.045-.765-.242-1.016-.557-.25-.313-.364-.707-.319-1.11.045-.403.243-.763.557-1.015l4.147-3.313.015-.01c.651-.522 1.607-.416 2.129.235.25.314.364.71.319 1.114-.046.402-.243.761-.558 1.012l-4.16 3.325c-.314.25-.71.364-1.114.319zm7.28.902c-.046.403-.243.763-.558 1.014l-2.326 1.862c-.654.521-1.61.416-2.131-.237-.251-.312-.365-.706-.32-1.11.045-.403.242-.763.555-1.013h.001l2.326-1.86.004-.003c.653-.52 1.609-.414 2.13.238.25.313.363.706.318 1.109zm17.63-9.652c-.25.313-.61.51-1.015.556-.404.045-.8-.069-1.114-.32l-2.974-2.376c-.48-.383-1.178-.305-1.561.174-.383.48-.305 1.179.174 1.562l2.972 2.375c.652.522.76 1.476.24 2.124-.523.653-1.478.759-2.13.236l-3.226-2.573c-.48-.383-1.179-.304-1.561.175-.383.48-.305 1.179.175 1.562l3.224 2.572c.314.252.511.612.556 1.016.045.402-.068.796-.321 1.111-.25.314-.61.51-1.015.556-.404.044-.8-.069-1.114-.318l-1.604-1.284-.008-.007-1.356-1.083-.254-.203c-.479-.383-1.178-.306-1.561.174-.048.06-.089.123-.122.189-.161.314-.159.683-.008.992.07.143.17.274.304.38L33 43.8c.648.524.754 1.474.235 2.122-.522.653-1.478.76-2.13.239l-1.83-1.463c.075-.95-.206-1.878-.802-2.623-.37-.463-.83-.814-1.335-1.05.37-.512.605-1.115.678-1.763.112-.995-.17-1.971-.793-2.751-.37-.462-.83-.812-1.333-1.046.37-.515.605-1.119.677-1.768.111-.993-.17-1.967-.792-2.744-1.069-1.337-2.877-1.743-4.382-1.105-.12-.553-.366-1.074-.73-1.529-1.286-1.607-3.642-1.87-5.252-.586l-2.975 2.378c-.673-.858-1.587-1.57-2.669-2.078l6.12-10.824 3.259.944c.015.174.043.357.09.552.789 3.243 3.775 4.754 7.793 3.944 3.386-.681 4.78.334 7.555 2.355.288.21.587.428.9.652 1.997 1.432 4.13 3.116 5.56 4.257l3.607 2.882c.314.25.51.61.556 1.014.044.403-.069.798-.32 1.111zm-.034-4.81l-2.42-1.934c-1.45-1.156-3.614-2.863-5.653-4.326-.308-.221-.603-.436-.887-.642-2.878-2.096-4.958-3.61-9.301-2.737-1.33.268-4.497.581-5.195-2.291-.099-.405.001-.545.044-.604.148-.207.746-.711 3.085-.919l4.962-.444c.809-.073 1.215-.11 2.449.32l2.907 1.017c.324.113.582.21.81.297 1.4.53 1.771.53 3.61-.002l2.144-.621 6.112 10.81c-1.082.507-1.996 1.219-2.667 2.077z" transform="translate(17 20)"/>
            <path d="M51.174 20.067c.614 0 1.112-.5 1.112-1.113 0-.614-.498-1.111-1.112-1.111-.613 0-1.11.497-1.11 1.11v.004c0 .614.497 1.11 1.11 1.11z" transform="translate(17 20)"/>
        </g>
    </g>
</svg>
