<?xml version="1.0" encoding="UTF-8"?>
<svg width="40px" height="32px" viewBox="0 0 40 32" version="1.1" xmlns="http://www.w3.org/2000/svg" xmlns:xlink="http://www.w3.org/1999/xlink">
    <!-- Generator: Sketch 55.2 (78181) - https://sketchapp.com -->
    <title>“</title>
    <desc>Created with Sketch.</desc>
    <g id="Desktop" stroke="none" stroke-width="1" fill="none" fill-rule="evenodd">
        <g id="diversepro-home-circle" transform="translate(-599.000000, -2629.000000)" fill="#04002C" fill-rule="nonzero">
            <g id="Feedback" transform="translate(0.000000, 2330.000000)">
                <g transform="translate(180.000000, 0.000000)" id="1">
                    <g transform="translate(380.000000, 260.000000)">
                        <path d="M52.4992239,39.3768234 L55.6369509,46.0192082 L55.1030159,46.1978491 C52.4413974,47.0883577 50.5534355,48.3149898 49.4250628,49.8664596 C48.3681448,51.3196817 47.7726089,53.2394508 47.6473614,55.6348684 L54.3137128,55.6348684 L54.3137128,70.5 L39.5,70.5 L39.5,60.0822368 C39.5,56.0239631 39.8574279,52.8118245 40.5785157,50.4385259 C41.3083805,48.0363396 42.65672,45.8828826 44.6171075,43.9830491 C46.5716351,42.088904 49.0583982,40.6047819 52.0725629,39.5290897 L52.4992239,39.3768234 Z M75.5541595,39.3753588 L78.6925784,46.0192082 L78.1586433,46.1978491 C75.4970248,47.0883577 73.609063,48.3149898 72.4806902,49.8664596 C71.4237722,51.3196817 70.8282364,53.2394508 70.7029889,55.6348684 L77.3693402,55.6348684 L77.3693402,70.5 L62.5556274,70.5 L62.5556274,60.0822368 C62.5556274,55.9908029 62.9130558,52.7703165 63.6344327,50.4129053 C64.3646574,48.0265795 65.7217207,45.881249 67.6988578,43.9815599 C69.6687814,42.0888112 72.1462016,40.605253 75.1265186,39.5296897 L75.5541595,39.3753588 Z M51.9837061,40.6267501 C49.290805,41.6411924 47.0686642,42.9997698 45.3130357,44.7011606 C43.4717647,46.4855568 42.2146968,48.4932425 41.5353265,50.7292372 C40.8471791,52.9941198 40.5,56.1141546 40.5,60.0822368 L40.5,69.5 L53.3137128,69.5 L53.3137128,56.6348684 L46.6159249,56.6348684 L46.6282165,56.1228684 C46.6960418,53.2976386 47.3550956,51.0124327 48.6163344,49.2782773 C49.8003627,47.6502832 51.6837331,46.3722727 54.2549813,45.4349072 L51.9837061,40.6267501 Z M75.0400478,40.6282624 C72.3773977,41.642645 70.162628,43.0011002 68.3916994,44.7026497 C66.534405,46.4871905 65.2696747,48.4865553 64.5906644,50.7055158 C63.902806,52.9533907 63.5556274,56.0815251 63.5556274,60.0822368 L63.5556274,69.5 L76.3693402,69.5 L76.3693402,56.6348684 L69.6715523,56.6348684 L69.6838439,56.1228684 C69.7516693,53.2976386 70.410723,51.0124327 71.6719618,49.2782773 C72.8559902,47.6502832 74.7393605,46.3722727 77.3106088,45.4349072 L75.0400478,40.6282624 Z" id="“"></path>
                    </g>
                </g>
            </g>
        </g>
    </g>
</svg>