<svg xmlns="http://www.w3.org/2000/svg" width="90" height="90" viewBox="0 0 90 90">
    <g fill="none" fill-rule="evenodd">
        <circle cx="45" cy="45" r="45" fill="#DEF3F5"/>
        <g fill="#1EAFBD" fill-rule="nonzero">
            <path d="M49.937 26v-.001L43.797 9.723h3.302C48.698 9.723 50 8.42 50 6.82s-1.302-2.902-2.902-2.902c-.54 0-.976.437-.976.977 0 .539.437.976.976.976.523 0 .949.426.949.949 0 .523-.426.948-.949.948H27.93v-.343c0-.065-.007-.127-.019-.188.802-.766 1.303-1.843 1.303-3.037 0-2.316-1.885-4.2-4.201-4.2-2.317 0-4.201 1.884-4.201 4.2 0 1.183.492 2.252 1.281 3.016-.015.068-.023.137-.023.209v.344H2.902c-.523 0-.949-.426-.949-.949 0-.523.426-.948.949-.948.539 0 .976-.438.976-.977 0-.54-.437-.977-.976-.977C1.302 3.92 0 5.221 0 6.821s1.302 2.902 2.902 2.902h3.303L.063 25.999c-.04.107-.063.223-.063.345 0 4.2 3.417 7.617 7.617 7.617s7.617-3.417 7.617-7.617c0-.122-.023-.237-.063-.345L9.03 9.723H22.07v3.327c0 .54.438.977.977.977.54 0 .976-.438.976-.977V8.283c.318.077.65.12.99.12.332 0 .654-.04.964-.114v23.392c0 .54.437.977.976.977.54 0 .977-.438.977-.977V9.723h13.04L34.83 25.999c-.04.107-.063.223-.063.345 0 4.2 3.417 7.617 7.617 7.617S50 30.544 50 26.344c0-.122-.023-.237-.063-.345zm-47.548-.633L6.64 14.1v11.267H2.389zM8.594 14.1l4.252 11.267H8.594V14.1zm-.977 17.908c-2.79 0-5.115-2.029-5.58-4.688h11.16c-.464 2.66-2.79 4.688-5.58 4.688zM22.765 4.2c0-1.24 1.008-2.248 2.248-2.248 1.24 0 2.248 1.009 2.248 2.248 0 1.24-1.008 2.248-2.248 2.248-1.24 0-2.248-1.008-2.248-2.248zm14.39 21.166L41.407 14.1v11.267h-4.252zM43.36 14.1l4.251 11.267H43.36V14.1zm-.977 17.908c-2.79 0-5.116-2.029-5.58-4.688h11.16c-.464 2.66-2.79 4.688-5.58 4.688z" transform="translate(20 20)"/>
            <path d="M31.703 42.423H27.93v-2.93c0-.539-.438-.976-.977-.976-.54 0-.976.437-.976.977v2.93h-1.954V20.862c0-.54-.437-.977-.976-.977-.54 0-.977.437-.977.977v21.56h-3.773c-3.64 0-6.6 2.961-6.6 6.6 0 .54.437.977.977.977h24.652c.54 0 .977-.437.977-.976 0-3.64-2.961-6.6-6.6-6.6zm-17.95 5.624c.45-2.095 2.317-3.67 4.544-3.67h13.406c2.227 0 4.094 1.575 4.544 3.67H13.753z" transform="translate(20 20)"/>
            <path d="M26.953 36.564c.257 0 .509-.105.69-.286.182-.182.287-.434.287-.69 0-.258-.105-.51-.287-.691-.181-.182-.433-.286-.69-.286-.257 0-.509.104-.69.286-.182.182-.286.433-.286.69 0 .258.104.51.286.69.181.182.433.287.69.287zM23.047 17.933c.257 0 .509-.105.69-.286.182-.182.286-.434.286-.69 0-.257-.104-.51-.286-.691-.181-.182-.433-.286-.69-.286-.257 0-.509.104-.69.286-.182.182-.287.434-.287.69 0 .257.105.51.286.69.182.182.434.287.69.287z" transform="translate(20 20)"/>
        </g>
    </g>
</svg>
