<?xml version="1.0" encoding="UTF-8"?>
<svg width="58px" height="56px" viewBox="0 0 58 56" version="1.1" xmlns="http://www.w3.org/2000/svg" xmlns:xlink="http://www.w3.org/1999/xlink">
    <!-- Generator: Sketch 56.2 (81672) - https://sketch.com -->
    <title>search-results</title>
    <desc>Created with Sketch.</desc>
    <g id="Search" stroke="none" stroke-width="1" fill="none" fill-rule="evenodd">
        <g id="5-diversepro-search_result-0" transform="translate(-619.000000, -410.000000)" fill-rule="nonzero">
            <g id="Lawyers" transform="translate(180.000000, 180.000000)">
                <g id="000" transform="translate(377.000000, 190.000000)">
                    <g id="search-results" transform="translate(62.000000, 40.000000)">
                        <path d="M7.43324317,14.9332432 C-1.93933983,24.3058262 -1.93933983,39.5017857 7.43324317,48.8743687 C16.8058262,58.2469517 32.0017857,58.2469517 41.3743687,48.8743687 C50.7469517,39.5017857 50.7469517,24.3058262 41.3743687,14.9332432 C32.0017857,5.56066017 16.8058262,5.56066017 7.43324317,14.9332432 Z" id="Path" fill="#FFFFFF"></path>
                        <path d="M11.0190296,8.51902961 C21.1726612,-1.63460197 37.6349506,-1.63460197 47.7885822,8.51902961 C57.7052957,18.4357431 57.9366857,34.3701452 48.4827522,44.5676842 L56.9809704,53.0667568 C57.3714947,53.4572811 57.3714947,54.0904461 56.9809704,54.4809704 C56.6204864,54.8414544 56.0532554,54.8691839 55.6609642,54.564159 L55.5667568,54.4809704 L47.0684195,45.9820705 C36.8709112,55.4366968 20.9359815,55.2055341 11.0190296,45.2885822 C0.865398026,35.1349506 0.865398026,18.6726612 11.0190296,8.51902961 Z M12.4332432,9.93324317 C3.06066017,19.3058262 3.06066017,34.5017857 12.4332432,43.8743687 C21.8058262,53.2469517 37.0017857,53.2469517 46.3743687,43.8743687 C55.7469517,34.5017857 55.7469517,19.3058262 46.3743687,9.93324317 C37.0017857,0.560660172 21.8058262,0.560660172 12.4332432,9.93324317 Z" id="Shape" fill="#04002C"></path>
                    </g>
                </g>
            </g>
        </g>
    </g>
</svg>