<svg xmlns="http://www.w3.org/2000/svg" width="58" height="70" viewBox="0 0 58 70">
    <g fill="#1EAFBD" fill-rule="nonzero">
        <path d="M28.71 5.47c-.756 0-1.365.61-1.365 1.366 0 .704.53 1.29 1.23 1.359.81.08 1.502-.55 1.502-1.36 0-.756-.61-1.365-1.366-1.365z"/>
        <path d="M56.055 8.203a6.844 6.844 0 0 1-6.836-6.836C49.219.612 48.607 0 47.852 0H9.57c-.755 0-1.367.612-1.367 1.367a6.844 6.844 0 0 1-6.836 6.836C.612 8.203 0 8.815 0 9.57v22.311C0 49.27 11.333 64.85 28.318 69.942a1.371 1.371 0 0 0 .786 0c16.617-4.984 28.318-20.293 28.318-38.06V9.57c0-.755-.612-1.367-1.367-1.367zm-1.367 23.678c0 16.331-10.421 30.474-25.977 35.322A36.968 36.968 0 0 1 2.734 31.881v-21.04a9.593 9.593 0 0 0 8.106-8.107h35.742a9.593 9.593 0 0 0 8.105 8.106v21.041z"/>
        <path d="M51.134 12.645a12.315 12.315 0 0 1-6.357-6.358 1.367 1.367 0 0 0-1.253-.818h-9.347a1.367 1.367 0 0 0 0 2.734h8.483a15.03 15.03 0 0 0 6.559 6.559v17.12c0 13.38-8.032 24.924-20.508 29.545C16.235 56.806 8.203 45.26 8.203 31.88v-17.12a15.03 15.03 0 0 0 6.559-6.558h8.483a1.367 1.367 0 0 0 0-2.734h-9.348c-.543 0-1.034.321-1.252.818a12.315 12.315 0 0 1-6.358 6.358c-.497.218-.818.71-.818 1.252v17.984c0 14.658 9.066 27.433 22.786 32.289a1.366 1.366 0 0 0 .912 0C42.876 59.319 51.953 46.55 51.953 31.88V13.897c0-.543-.321-1.034-.819-1.252z"/>
        <path d="M28.71 19.96c-6.784 0-12.304 5.52-12.304 12.306 0 6.784 5.52 12.304 12.305 12.304s12.305-5.52 12.305-12.304c0-6.785-5.52-12.305-12.305-12.305zm0 21.876c-5.276 0-9.57-4.293-9.57-9.57s4.294-9.57 9.57-9.57c5.278 0 9.571 4.293 9.571 9.57s-4.293 9.57-9.57 9.57z"/>
        <path d="M35.146 28.564a1.368 1.368 0 0 0-1.933 0l-5.87 5.87-1.767-1.768a1.368 1.368 0 0 0-1.934 1.934l2.735 2.734a1.364 1.364 0 0 0 1.933 0l6.836-6.836c.534-.534.534-1.4 0-1.934z"/>
    </g>
</svg>
