<?xml version="1.0" encoding="UTF-8"?>
<svg width="23px" height="13px" viewBox="0 0 23 13" version="1.1" xmlns="http://www.w3.org/2000/svg" xmlns:xlink="http://www.w3.org/1999/xlink">
    <!-- Generator: Sketch 56.2 (81672) - https://sketch.com -->
    <title>show</title>
    <desc>Created with Sketch.</desc>
    <g id="Registration" stroke="none" stroke-width="1" fill="none" fill-rule="evenodd">
        <g id="diversepro-step-8-Pro-plus" transform="translate(-932.000000, -655.000000)" fill="#D8DFD7" fill-rule="nonzero">
            <g id="fields" transform="translate(465.000000, 350.000000)">
                <g id="field" transform="translate(0.000000, 230.000000)">
                    <g id="show" transform="translate(467.000000, 75.000000)">
                        <path d="M22.8931551,6.18669882 L22.6259558,5.8423621 C22.5795043,5.78228991 21.46472,4.35560177 19.5547377,2.92549446 C16.9988216,1.0116009 14.2134867,0 11.5000484,0 C8.78681653,0 6.00143001,1.0116009 3.44530743,2.92549446 C1.53594451,4.35518095 0.420644099,5.78218471 0.374347442,5.84204648 L0.10683844,6.18669882 C-0.0356128133,6.37033455 -0.0356128133,6.62966545 0.10683844,6.81330118 L0.374140991,7.15779571 C0.420644099,7.21786789 1.53651225,8.64523987 3.44530743,10.0745581 C6.00132678,11.9883991 8.7867133,13 11.5000484,13 C14.2134351,13 16.99877,11.9883991 19.5547893,10.0745581 C21.4653394,8.6439248 22.5794527,7.21781529 22.6256461,7.15811132 L22.8932067,6.81330118 C23.0356064,6.62966545 23.0356064,6.37033455 22.8931551,6.18669882 Z M11.5000484,11.4972485 C8.7919778,11.4972485 6.59683496,9.25979623 6.59683496,6.5 C6.59683496,3.74015117 8.7919778,1.50275152 11.5000484,1.50275152 C14.208119,1.50275152 16.4032618,3.74015117 16.4032618,6.5 C16.4032618,9.25979623 14.208119,11.4972485 11.5000484,11.4972485 Z" id="Shape"></path>
                        <path d="M11.5001077,3 C9.56719231,3 8,4.56703077 8,6.5 C8,8.43291538 9.56713846,10 11.4999462,10 C13.4329692,10 15,8.43286154 15,6.49989231 C15,4.56703077 13.4330231,3 11.5001077,3 Z" id="Shape"></path>
                    </g>
                </g>
            </g>
        </g>
    </g>
</svg>