<?xml version="1.0" encoding="UTF-8"?>
<svg width="30px" height="30px" viewBox="0 0 30 30" version="1.1" xmlns="http://www.w3.org/2000/svg" xmlns:xlink="http://www.w3.org/1999/xlink">
    <!-- Generator: Sketch 56.2 (81672) - https://sketch.com -->
    <title>sun</title>
    <desc>Created with Sketch.</desc>
    <g id="Registration-New" stroke="none" stroke-width="1" fill="none" fill-rule="evenodd">
        <g id="diversepro-step-6" transform="translate(-240.000000, -510.000000)" fill="#FFFFFF" fill-rule="nonzero">
            <g id="reason-1" transform="translate(180.000000, 470.000000)">
                <g id="sun" transform="translate(60.000000, 40.000000)">
                    <path d="M29.6860559,14.4564844 L25.6736302,12.1399219 L28.0963551,7.94373047 C28.2084445,7.74955078 28.2084445,7.5103125 28.0963551,7.31613281 C27.9842657,7.12195312 27.7770204,7.00230469 27.5528416,7.00230469 L22.9976055,7.00230469 L22.9976055,2.44705078 C22.9976055,2.2228125 22.8779575,2.015625 22.6837786,1.90353516 C22.4895997,1.79138672 22.2503623,1.79144531 22.0561834,1.90353516 L17.8598912,4.32621094 L15.5434549,0.313828125 C15.4313655,0.119648437 15.2241202,0 14.9999414,0 C14.775704,0 14.5685173,0.119648437 14.4564279,0.313828125 L12.1400502,4.32621094 L7.94369944,1.90353516 C7.74946192,1.79138672 7.51028316,1.79144531 7.31610423,1.90353516 C7.1219253,2.015625 7.00227733,2.2228125 7.00227733,2.44705078 L7.00227733,7.00230469 L2.44704122,7.00230469 C2.22280382,7.00230469 2.01561713,7.12195312 1.90352772,7.31613281 C1.79143831,7.5103125 1.79137972,7.74955078 1.90352772,7.94373047 L4.32625263,12.1399219 L0.313826899,14.4564844 C0.11964797,14.5685742 0,14.7757617 0,15 C0,15.2242383 0.11964797,15.4314258 0.313826899,15.5435156 L4.32625263,17.8600781 L1.90352772,22.0562695 C1.79137972,22.2504492 1.79143831,22.4896875 1.90352772,22.6838672 C2.01561713,22.8780469 2.22280382,22.9976953 2.44704122,22.9976953 L7.00227733,22.9976953 L7.00227733,27.5529492 C7.00227733,27.7771875 7.1219253,27.984375 7.31610423,28.0964648 C7.4131937,28.1525977 7.52153312,28.1805469 7.62993113,28.1805469 C7.73827055,28.1805469 7.84666857,28.1524805 7.94375803,28.0964648 L12.1401088,25.6737891 L14.4564865,29.6861719 C14.5685759,29.8803516 14.7757626,30 15,30 C15.2241788,30 15.4314241,29.8803516 15.5435135,29.6861719 L17.8598912,25.6737891 L22.0561834,28.0964648 C22.1532728,28.1525391 22.2616123,28.1805469 22.3700103,28.1805469 C22.4784083,28.1805469 22.5867477,28.1524805 22.6838372,28.0964648 C22.8780161,27.984375 22.9976641,27.7771875 22.9976641,27.5529492 L22.9976641,22.9976953 L27.5529002,22.9976953 C27.777079,22.9976953 27.9843243,22.8780469 28.0964137,22.6838672 C28.2085031,22.4896875 28.2085031,22.2504492 28.0964137,22.0562695 L25.6736888,17.8600781 L29.6861731,15.5435156 C29.880352,15.4314258 30,15.2242383 30,15 C30,14.7757617 29.8802348,14.5685742 29.6860559,14.4564844 Z M26.4658732,8.25755859 L23.6900637,13.0651758 C23.5285214,12.3355664 23.2746942,11.6291016 22.9284065,10.9521094 C22.8530553,10.805332 22.7719618,10.6571484 22.6864153,10.5099609 C22.1884875,9.65935547 21.5513416,8.89839844 20.8083757,8.25755859 L26.4658732,8.25755859 Z M21.7423565,3.53414062 L21.7423565,7.00230469 L19.404768,7.00230469 L18.4874278,5.41330078 L21.7423565,3.53414062 Z M14.9999414,1.88285156 L17.6689935,6.50625 C16.8688404,6.25435547 16.036578,6.11912109 15.1807024,6.10236328 C15.0626951,6.06685547 14.9371877,6.06685547 14.8191804,6.10236328 C13.9632462,6.11912109 13.1310425,6.25429687 12.3308307,6.50625 L14.9999414,1.88285156 Z M8.25752634,3.53414062 L11.5125136,5.41330078 L10.5951735,7.00230469 L8.25752634,7.00230469 L8.25752634,3.53414062 L8.25752634,3.53414062 Z M3.53400963,8.25761719 L9.19156566,8.25761719 C8.44854122,8.89839844 7.81151246,9.65935547 7.31358471,10.5099609 C7.31346753,10.5101953 7.31335034,10.5104883 7.31323315,10.5107227 C7.31305737,10.5110156 7.3127644,10.5113672 7.31258862,10.5116602 C7.22809677,10.6569727 7.14700333,10.8051562 7.07159347,10.9520508 C7.07153488,10.952168 7.07147628,10.9523437 7.07141769,10.9524609 C7.0713591,10.9526367 7.07124191,10.9527539 7.07112472,10.9529883 C6.72507139,11.6295703 6.47136144,12.3357422 6.3098191,13.0651758 L3.53400963,8.25761719 Z M1.88284421,15 L4.95384784,13.2269531 L5.97759384,15 L4.95390643,16.7730469 L1.88284421,15 Z M3.53412682,21.7425 L6.3098777,16.9348828 C6.47142003,17.6644922 6.72530576,18.370957 7.07159347,19.0480664 C7.14706193,19.1950195 7.22809677,19.3430859 7.31352612,19.4900977 C7.81139527,20.3407031 8.44854122,21.1016602 9.19156566,21.7425 L3.53412682,21.7425 Z M8.25752634,26.4658594 L8.25752634,22.9976953 L10.5951149,22.9976953 L11.512455,24.5866992 L8.25752634,26.4658594 Z M14.9999414,28.1171484 L12.3308307,23.4936914 C13.1728782,23.7587695 14.0508436,23.8955273 14.9559963,23.9002148 L15.0471092,23.9002148 C15.9500939,23.8955859 16.8272975,23.7588281 17.6689935,23.49375 L14.9999414,28.1171484 Z M15.0438865,22.6449023 L14.9592189,22.6449023 C13.7494971,22.6386914 12.5939742,22.3582617 11.5248183,21.8114062 C11.3976117,21.7460156 11.2690575,21.6757031 11.1429057,21.6023437 C10.0098242,20.9387695 9.06025758,19.989082 8.39785782,18.8574609 C8.32432295,18.7308984 8.25377635,18.6020508 8.18867895,18.4753711 C7.64176702,17.4060352 7.36122125,16.2503906 7.35501033,15.0405469 L7.35501033,14.9591602 C7.36122125,13.7511914 7.64094672,12.5973047 8.18615943,11.5294336 L8.39985,11.1389062 C9.06312866,10.0078711 10.0115234,9.05994141 11.1429057,8.39736328 C11.2691161,8.32400391 11.3976117,8.25369141 11.5248183,8.18830078 C12.5940328,7.64150391 13.7494971,7.36101562 14.9592189,7.35480469 L15.0406053,7.35480469 C16.25021,7.36101562 17.405557,7.64144531 18.4746544,8.18806641 C18.6017437,8.25333984 18.7302979,8.32371094 18.8569185,8.39724609 C19.99,9.06082031 20.939508,10.0104492 21.6019664,11.1421289 C21.675677,11.2688672 21.7461065,11.3977148 21.8111453,11.5242773 C22.3581158,12.5934961 22.638603,13.749082 22.6447553,14.959043 L22.6447553,15.0404883 C22.6385444,16.2503906 22.3581158,17.4060352 21.8115554,18.4744336 C21.7461651,18.6018164 21.675677,18.7306641 21.6030211,18.8557031 C20.9396252,19.9891406 19.9901172,20.9388281 18.8570357,21.6023437 C18.7303565,21.6758789 18.6018023,21.7463086 18.4747716,21.8115234 C17.4056156,22.3583789 16.2502686,22.6386914 15.0438865,22.6449023 Z M21.7423565,26.4658594 L18.4874278,24.5866992 L19.404768,22.9976953 L21.7423565,22.9976953 L21.7423565,26.4658594 Z M26.4658146,21.7423828 L20.8082586,21.7423828 C21.5513416,21.1014844 22.1887219,20.3400586 22.6872356,19.4883398 C22.7718446,19.3428516 22.8529381,19.194668 22.9286995,19.0470703 C23.2748114,18.3705469 23.5285214,17.6643164 23.6900637,16.9348242 L26.4658146,21.7423828 Z M25.046035,16.7731055 L24.022289,15 L25.0459764,13.2269531 L28.1170386,15 L25.046035,16.7731055 Z" id="Shape"></path>
                    <path d="M18.9579528,9.91360718 C18.7165552,9.67165667 18.3511089,9.70148704 18.1416418,9.98038227 C17.9321748,10.2592151 17.9580002,10.6813959 18.1994519,10.9233464 C19.2435996,11.9700304 19.8426094,13.4855754 19.8426094,15.0815626 C19.8426094,15.4507602 20.1017824,15.75 20.4213047,15.75 C20.7408271,15.75 21,15.4507602 21,15.0815626 C21,13.0979679 20.2557085,11.2142862 18.9579528,9.91360718 Z" id="Path"></path>
                    <path d="M17.668636,9.23748206 C17.5131692,9.15961832 17.3494313,9.08897212 17.1820284,9.02737842 C16.9059622,8.92590479 16.614592,9.11502864 16.5258883,9.45364108 C16.4371846,9.79225352 16.5835878,10.156372 16.8556423,10.2737487 L17.2943568,10.4631172 C17.3522544,10.4880727 17.4112416,10.5 17.4693869,10.5 C17.6841381,10.5 17.8857645,10.3377278 17.9657018,10.0759393 C18.0673818,9.74313759 17.9355396,9.3710676 17.668636,9.23748206 Z" id="Path"></path>
                </g>
            </g>
        </g>
    </g>
</svg>