<?xml version="1.0" encoding="UTF-8"?>
<svg width="34px" height="34px" viewBox="0 0 34 34" version="1.1" xmlns="http://www.w3.org/2000/svg" xmlns:xlink="http://www.w3.org/1999/xlink">
    <!-- Generator: Sketch 56.2 (81672) - https://sketch.com -->
    <title>translation</title>
    <desc>Created with Sketch.</desc>
    <g id="Registration-New" stroke="none" stroke-width="1" fill="none" fill-rule="evenodd">
        <g id="diversepro-step-6" transform="translate(-780.000000, -508.000000)" fill="#FFFFFF" fill-rule="nonzero">
            <g id="reason-3" transform="translate(735.000000, 470.000000)">
                <g id="translation" transform="translate(45.000000, 38.000000)">
                    <path d="M31.2109375,11.9532162 L21.8712616,11.9532162 C21.9008331,11.6255922 21.9169159,11.2938178 21.9169159,10.9584118 C21.9169159,4.91591582 17.0007782,0 10.9583282,0 C9.03358458,0 7.1402283,0.506351519 5.4829254,1.46406146 C5.16542052,1.64745826 5.05673221,2.05368081 5.24012755,2.37118812 C5.42378233,2.68895487 5.83000185,2.79738462 6.14750673,2.61398782 C7.60299686,1.77274909 9.26652529,1.32813513 10.9583282,1.32813513 C16.2684937,1.32813513 20.5887909,5.64820596 20.5887909,10.9584118 C20.5887909,16.2686178 16.2684937,20.588948 10.9583282,20.588948 C8.73553467,20.588948 6.64736935,19.8525074 4.91950987,18.4595219 C4.74623106,18.319964 4.5166626,18.2782004 4.3075867,18.3422725 L2.54496767,18.8032288 L3.23548888,17.2857306 C3.33483887,17.0678334 3.30889893,16.8136201 3.16804503,16.6198473 C1.96443175,14.9666822 1.328125,13.0089799 1.328125,10.9584118 C1.328125,9.26218611 1.77507021,7.59449457 2.6207123,6.13588058 C2.80462646,5.81837328 2.69645693,5.41215066 2.37921143,5.22823509 C2.06196593,5.04431952 1.65574648,5.1522305 1.47157286,5.46973781 C0.508941617,7.13042549 0,9.02846547 0,10.9584118 C0,13.1604703 0.645126359,15.2691442 1.86949159,17.0810629 L0.757705672,19.5238458 C0.651351945,19.7570477 0.688964844,20.0304567 0.853942871,20.2265643 C1.0189209,20.4226716 1.28195194,20.5061989 1.52993771,20.4413485 L4.35401915,19.7030922 C6.24711611,21.1331721 8.57885742,21.9170831 10.9583282,21.9170831 C11.4763488,21.9170831 11.9855499,21.8799887 12.484375,21.8102097 L12.484375,27.6252108 C12.484375,29.1629422 13.7354584,30.4142945 15.2731781,30.4142945 L24.6652527,30.4142945 L28.8646698,33.850066 C28.9855499,33.9491573 29.1347046,34 29.2851562,34 C29.3819122,34 29.4789276,33.9789885 29.569458,33.9361872 C29.8013611,33.826201 29.9492188,33.5927398 29.9492188,33.3359324 L29.9492188,30.4142945 L31.2109375,30.4142945 C32.7489166,30.4142945 34,29.1629422 34,27.6252108 L34,14.7423 C34,13.2043091 32.7489166,11.9532162 31.2109375,11.9532162 Z M32.671875,27.6252108 C32.671875,28.4306521 32.016632,29.0861594 31.2109375,29.0861594 L29.2851562,29.0861594 C28.9183654,29.0861594 28.6210938,29.3834334 28.6210938,29.750227 L28.6210938,31.9346461 L25.3412476,29.2511387 C25.1604462,29.0861594 25.0022125,29.0861594 24.646576,29.0861594 L15.2731781,29.0861594 C14.467743,29.0861594 13.8125,28.4306521 13.8125,27.6252108 L13.8125,21.5391352 C17.7405853,20.478443 20.8009796,17.2841742 21.6681519,13.2813513 L31.2109375,13.2813513 C32.016632,13.2813513 32.671875,13.9365993 32.671875,14.7423 L32.671875,27.6252108 Z" id="Shape"></path>
                    <path d="M26.9001744,23.0047352 C27.125608,22.9017364 27.281957,22.6798736 27.281957,22.421999 C27.281957,22.0661622 26.9843224,21.7773124 26.6170839,21.7773124 L26.3449014,21.7773124 L24.2006856,17.0388659 C24.0944618,16.8044115 23.855523,16.6530612 23.5916515,16.6530612 C23.32778,16.6530612 23.0888412,16.8044115 22.982877,17.0388659 L20.8386612,21.7773124 L20.5664788,21.7773124 C20.1992403,21.7773124 19.9016057,22.0661622 19.9016057,22.421999 C19.9016057,22.6798736 20.0579547,22.9017364 20.2833883,23.0047352 L19.4847614,24.7695648 C19.3372427,25.0956855 19.4902154,25.4759499 19.8262881,25.6189898 C20.1626203,25.7620296 20.5547916,25.6137013 20.7023103,25.2875806 L21.7074114,23.0666856 L25.4761512,23.0666856 L26.4812524,25.2875806 C26.5905929,25.529338 26.8344663,25.6734694 27.0905463,25.6734694 C27.1796289,25.6734694 27.2702698,25.6560089 27.3572747,25.6189898 C27.6933472,25.4759499 27.8465797,25.0956855 27.6988013,24.7695648 L26.9001744,23.0047352 Z M22.2907338,21.7773124 L23.5916515,18.9024131 L24.8925692,21.7773124 L22.2907338,21.7773124 Z" id="Shape"></path>
                    <path d="M3.46938776,4.16326531 C3.65180164,4.16326531 3.83069195,4.08899869 3.95998083,3.95998083 C4.08899869,3.83096298 4.16326531,3.65207267 4.16326531,3.46938776 C4.16326531,3.2869738 4.08899869,3.10808349 3.95998083,2.97879461 C3.83069195,2.84977675 3.65180164,2.7755102 3.46938776,2.7755102 C3.28616071,2.7755102 3.10781247,2.84977675 2.97879461,2.97879461 C2.84977675,3.10808349 2.7755102,3.2869738 2.7755102,3.46938776 C2.7755102,3.65207267 2.84977675,3.83096298 2.97879461,3.95998083 C3.10781247,4.08926972 3.28670277,4.16326531 3.46938776,4.16326531 Z" id="Path"></path>
                    <path d="M7.27209663,14.7322611 C6.96131086,14.9058581 6.8475232,15.303089 7.01795411,15.6196483 C7.13474937,15.8363893 7.3545551,15.9591837 7.58112795,15.9591837 C7.68539156,15.9591837 7.79115901,15.9331441 7.88915673,15.8785121 C9.32002449,15.0791999 10.4208076,13.8359387 11.0646856,12.3698097 C11.7088141,13.8359387 12.8093466,15.0791999 14.2402144,15.8785121 C14.3382121,15.9331441 14.4439796,15.9591837 14.5482432,15.9591837 C14.774816,15.9591837 14.9946217,15.8363893 15.111417,15.6196483 C15.2818479,15.303089 15.1680603,14.9058581 14.8572745,14.7322611 C13.1822895,13.7966242 12.0549393,12.1244762 11.7749814,10.2350768 L14.6236839,10.2350768 C14.97808,10.2350768 15.2653061,9.94251477 15.2653061,9.58153503 C15.2653061,9.22055535 14.97808,8.92799326 14.6236839,8.92799326 L11.7063078,8.92799326 L11.7063078,6.20456218 C11.7063078,5.8435825 11.4190816,5.55102041 11.0646856,5.55102041 C10.7102895,5.55102041 10.4230633,5.8435825 10.4230633,6.20456218 L10.4230633,8.92799326 L8.105203,8.92799326 C7.75080694,8.92799326 7.46358077,9.22055535 7.46358077,9.58153503 C7.46358077,9.94251477 7.75080694,10.2350768 8.105203,10.2350768 L10.3543897,10.2350768 C10.0744319,12.1244762 8.94708157,13.7968794 7.27209663,14.7322611 Z" id="Path"></path>
                </g>
            </g>
        </g>
    </g>
</svg>