<svg xmlns="http://www.w3.org/2000/svg" width="51" height="40" viewBox="0 0 51 40">
    <g fill="#BBBAC5">
        <path d="M39.997 14.001C39.89 6.311 33.602.086 25.887.086c-3.432 0-6.738 1.248-9.31 3.515-2.295 2.024-3.865 4.727-4.487 7.696l-.135-.001C5.363 11.296 0 16.659 0 23.25c0 6.592 5.363 11.955 11.955 11.955h8.349c.594 0 1.076-.482 1.076-1.076 0-.594-.482-1.076-1.076-1.076h-8.35c-5.405 0-9.802-4.397-9.802-9.803 0-5.405 4.397-9.803 9.803-9.803.288 0 .592.016.93.048.574.053 1.09-.355 1.167-.926.388-2.84 1.79-5.451 3.948-7.354 2.178-1.92 4.98-2.978 7.887-2.978 6.595 0 11.96 5.365 11.96 11.96 0 .237-.018.482-.037.741l-.008.11c-.022.317.096.627.324.848.228.221.54.33.857.299.286-.03.575-.044.858-.044 4.66 0 8.45 3.791 8.45 8.451s-3.79 8.451-8.45 8.451h-8.78c-.594 0-1.075.482-1.075 1.076 0 .594.481 1.076 1.075 1.076h8.78c5.846 0 10.602-4.756 10.602-10.603 0-5.794-4.672-10.517-10.446-10.6z"/>
        <path d="M25.887 5.142c-4.498 0-8.349 3.362-8.957 7.82-.08.588.332 1.13.92 1.21.05.008.099.01.147.01.53 0 .991-.39 1.065-.93.463-3.397 3.397-5.958 6.825-5.958.594 0 1.076-.482 1.076-1.076 0-.594-.482-1.076-1.076-1.076zM30.78 26.31l-3.914-3.495c-.674-.603-1.692-.603-2.367 0l-3.913 3.496c-.443.395-.481 1.076-.086 1.519.396.443 1.076.481 1.52.085l2.587-2.311v13.234c0 .595.481 1.076 1.076 1.076.594 0 1.075-.481 1.075-1.076V25.604l2.588 2.311c.205.184.461.274.716.274.296 0 .59-.121.803-.36.396-.443.357-1.123-.086-1.518z"/>
    </g>
</svg>
