<svg xmlns="http://www.w3.org/2000/svg" width="90" height="90" viewBox="0 0 90 90">
    <g fill="none" fill-rule="evenodd">
        <circle cx="45" cy="45" r="45" fill="#DEF3F5"/>
        <g fill="#1EAFBD" fill-rule="nonzero">
            <path d="M33.691 41.943c0 1.212.986 2.198 2.198 2.198 1.211 0 2.197-.986 2.197-2.198 0-1.211-.986-2.197-2.197-2.197-1.212 0-2.198.986-2.198 2.197zm2.93 0c0 .404-.328.733-.732.733-.404 0-.733-.329-.733-.733 0-.404.329-.732.733-.732.404 0 .732.328.732.732zM13.916 22.168c-6.058 0-10.986 4.928-10.986 10.986 0 6.058 4.928 10.987 10.986 10.987 6.058 0 10.986-4.929 10.986-10.987s-4.928-10.986-10.986-10.986zm0 20.508c-5.25 0-9.521-4.272-9.521-9.522s4.27-9.521 9.521-9.521c5.25 0 9.521 4.271 9.521 9.521 0 5.25-4.27 9.522-9.521 9.522z" transform="translate(20 22)"/>
            <path d="M13.916 30.225c-1.615 0-2.93 1.314-2.93 2.93 0 1.615 1.315 2.929 2.93 2.929 1.615 0 2.93-1.314 2.93-2.93 0-1.615-1.315-2.93-2.93-2.93zm0 4.394c-.808 0-1.465-.657-1.465-1.465 0-.807.657-1.465 1.465-1.465s1.465.658 1.465 1.465c0 .808-.657 1.465-1.465 1.465z" transform="translate(20 22)"/>
            <path d="M49.268 38.281h-5.845l-1.755-8.775c-.341-1.705-1.852-2.944-3.591-2.944H36.62V15.576c0-2.02-1.643-3.662-3.662-3.662h-2.271c-.34-1.67-1.82-2.93-3.588-2.93H16.113V3.662c0-2.02-1.642-3.662-3.662-3.662H2.197C1.571 0 .972.27.554.741c-.417.47-.613 1.098-.538 1.722.132 1.101 1.087 1.932 2.22 1.932h9.483v15.017C5.086 20.47 0 26.23 0 33.154 0 40.828 6.243 47.07 13.916 47.07s13.916-6.242 13.916-13.916c0-1.81-.348-3.54-.979-5.127h8.303v4.395H30.03c-.404 0-.732.328-.732.732 0 .405.328.733.732.733h5.127v2.983c-2.48.356-4.394 2.495-4.394 5.073 0 2.827 2.3 5.127 5.127 5.127s5.127-2.3 5.127-5.127c0-2.578-1.914-4.717-4.395-5.073v-8.843h1.456c1.044 0 1.95.743 2.154 1.767l1.87 9.35.006.028.583 2.915c.068.342.37.589.718.589h5.86c.404 0 .732-.328.732-.733v-2.93c0-.404-.328-.732-.732-.732zm-9.717 3.662c0 2.02-1.643 3.662-3.662 3.662-2.02 0-3.662-1.642-3.662-3.662 0-2.019 1.642-3.662 3.662-3.662 2.019 0 3.662 1.643 3.662 3.662zM27.1 10.45c.954 0 1.769.613 2.07 1.465H16.114V10.45H27.1zM2.236 2.93c-.386 0-.723-.281-.766-.64-.025-.212.039-.417.18-.576.14-.158.34-.248.547-.248h9.522V2.93H2.236zm10.948-1.338c.852.302 1.464 1.116 1.464 2.071v15.596c-.242-.013-.486-.02-.732-.02s-.49.007-.732.02V1.59zm.732 44.014c-6.866 0-12.451-5.585-12.451-12.45 0-6.866 5.585-12.452 12.451-12.452 6.866 0 12.451 5.586 12.451 12.451 0 6.866-5.585 12.451-12.451 12.451zm12.253-19.042c-2.021-3.742-5.706-6.458-10.056-7.15v-1.64H30.03c.405 0 .733-.327.733-.732 0-.404-.328-.732-.733-.732H16.113v-2.93H32.96c1.212 0 2.197.986 2.197 2.197v.733H32.96c-.405 0-.732.328-.732.732 0 .405.327.732.732.732h2.197v8.79H26.17zM48.535 41.21H44.01l-.293-1.465h4.82v1.465z" transform="translate(20 22)"/>
        </g>
    </g>
</svg>
