<?xml version="1.0" encoding="UTF-8"?>
<svg width="40px" height="32px" viewBox="0 0 40 32" version="1.1" xmlns="http://www.w3.org/2000/svg" xmlns:xlink="http://www.w3.org/1999/xlink">
    <!-- Generator: Sketch 56.2 (81672) - https://sketch.com -->
    <title>“</title>
    <desc>Created with Sketch.</desc>
    <g id="Registration-New" stroke="none" stroke-width="1" fill="none" fill-rule="evenodd">
        <g id="diversepro-step-1" transform="translate(-240.000000, -490.000000)" fill="#FFFFFF" fill-rule="nonzero">
            <g id="review" transform="translate(180.000000, 420.000000)">
                <g id="1">
                    <path d="M72.9992239,70.0014645 L76.1369509,76.6438494 L75.6030159,76.8224902 C72.9413974,77.7129988 71.0534355,78.939631 69.9250628,80.4911008 C68.8681448,81.9443228 68.2726089,83.864092 68.1473614,86.2595096 L74.8137128,86.2595096 L74.8137128,101.124641 L60,101.124641 L60,90.706878 C60,86.6486043 60.3574279,83.4364656 61.0785157,81.0631671 C61.8083805,78.6609808 63.15672,76.5075238 65.1171075,74.6076903 C67.0716351,72.7135452 69.5583982,71.2294231 72.5725629,70.1537309 L72.9992239,70.0014645 Z M96.0541595,70 L99.1925784,76.6438494 L98.6586433,76.8224902 C95.9970248,77.7129988 94.109063,78.939631 92.9806902,80.4911008 C91.9237722,81.9443228 91.3282364,83.864092 91.2029889,86.2595096 L97.8693402,86.2595096 L97.8693402,101.124641 L83.0556274,101.124641 L83.0556274,90.706878 C83.0556274,86.615444 83.4130558,83.3949577 84.1344327,81.0375464 C84.8646574,78.6512207 86.2217207,76.5058901 88.1988578,74.6062011 C90.1687814,72.7134524 92.6462016,71.2298942 95.6265186,70.1543309 L96.0541595,70 Z M72.4837061,71.2513913 C69.790805,72.2658336 67.5686642,73.6244109 65.8130357,75.3258017 C63.9717647,77.110198 62.7146968,79.1178836 62.0353265,81.3538784 C61.3471791,83.618761 61,86.7387958 61,90.706878 L61,100.124641 L73.8137128,100.124641 L73.8137128,87.2595096 L67.1159249,87.2595096 L67.1282165,86.7475095 C67.1960418,83.9222798 67.8550956,81.6370739 69.1163344,79.9029184 C70.3003627,78.2749244 72.1837331,76.9969139 74.7549813,76.0595484 L72.4837061,71.2513913 Z M95.5400478,71.2529035 C92.8773977,72.2672862 90.662628,73.6257413 88.8916994,75.3272909 C87.034405,77.1118317 85.7696747,79.1111965 85.0906644,81.330157 C84.402806,83.5780319 84.0556274,86.7061663 84.0556274,90.706878 L84.0556274,100.124641 L96.8693402,100.124641 L96.8693402,87.2595096 L90.1715523,87.2595096 L90.1838439,86.7475095 C90.2516693,83.9222798 90.910723,81.6370739 92.1719618,79.9029184 C93.3559902,78.2749244 95.2393605,76.9969139 97.8106088,76.0595484 L95.5400478,71.2529035 Z" id="“"></path>
                </g>
            </g>
        </g>
    </g>
</svg>