<?xml version="1.0" encoding="UTF-8"?>
<svg width="20px" height="20px" viewBox="0 0 20 20" version="1.1" xmlns="http://www.w3.org/2000/svg" xmlns:xlink="http://www.w3.org/1999/xlink">
    <!-- Generator: Sketch 55.2 (78181) - https://sketchapp.com -->
    <title>Close</title>
    <desc>Created with Sketch.</desc>
    <g id="Mobile" stroke="none" stroke-width="1" fill="none" fill-rule="evenodd">
        <g id="diversepro-home-menu-m" transform="translate(-270.000000, -35.000000)" fill="#FFFFFF" fill-rule="nonzero">
            <g id="close" transform="translate(270.000000, 35.000000)">
                <path d="M11.4556062,10.0139891 L19.6753341,1.83004637 C20.0694113,1.4395125 20.0694113,0.807302585 19.6753341,0.417764974 C19.282252,0.0272311032 18.6437839,0.0272311032 18.2507018,0.417764974 L10.0380228,8.59473394 L1.74938114,0.295889183 C1.35629906,-0.0986297276 0.717830917,-0.0986297276 0.32474883,0.295889183 C-0.0683332573,0.691404353 -0.0683332573,1.33158434 0.32474883,1.72610325 L8.6073367,10.0189704 L0.294811565,18.2948182 C-0.0982705217,18.6853521 -0.0982705217,19.317562 0.294811565,19.7070996 C0.687893652,20.0976335 1.32636179,20.0976335 1.71944388,19.7070996 L10.0249201,11.4382257 L18.2805561,19.7041108 C18.6736382,20.0986297 19.3121063,20.0986297 19.7051884,19.7041108 C20.0982705,19.3085956 20.0982705,18.6684157 19.7051884,18.2738967 L11.4556062,10.0139891 Z" id="Close"></path>
            </g>
        </g>
    </g>
</svg>