
<svg version="1.1" id="Слой_1" xmlns="http://www.w3.org/2000/svg" xmlns:xlink="http://www.w3.org/1999/xlink" x="0px" y="0px"
	 viewBox="0 0 81 82" style="enable-background:new 0 0 81 82;" xml:space="preserve">
<style type="text/css">
	.st0{fill:#FFFFFF;}
</style>
<path id="d-logo-sign-stroke" class="st0" d="M25.2,82H0V0h39.3c22.6,0,41,18.4,41,41S62,82,39.3,82h-1.3V56.8l1,0l0.6,0
	c8.6-0.2,15.5-7.2,15.5-15.8c0-8.7-7.1-15.8-15.8-15.8H25.2L25.2,82z M40.7,80c20.9-0.7,37.6-17.9,37.6-39c0-21.5-17.5-39-39-39H2
	v78h21.2l0-56.8h16.2c9.8,0,17.8,8,17.8,17.8c0,9.6-7.6,17.4-17.1,17.8V80L40.7,80z"/>
</svg>
