<svg xmlns="http://www.w3.org/2000/svg" width="90" height="90" viewBox="0 0 90 90">
    <g fill="none" fill-rule="evenodd">
        <circle cx="45" cy="45" r="45" fill="#DEF3F5"/>
        <g fill="#1EAFBD" fill-rule="nonzero">
            <path d="M16.602 32.129c-.54 0-.977.437-.977.976 0 .54.438.977.977.977.539 0 .976-.437.976-.977 0-.539-.437-.976-.976-.976z" transform="translate(28 20)"/>
            <path d="M29.297 42.188h-.1l-.781-7.297c-.323-2.912-1.704-5.591-3.887-7.544-.96-.861-2.046-1.552-3.209-2.055 3.769-1.634 6.557-5.17 7.08-9.47l.002-.014.002-.014.013-.11.787-7.871h.093c1.043 0 2.024-.407 2.762-1.145s1.144-1.719 1.144-2.762C33.203 1.752 31.451 0 29.297 0H3.907C2.862 0 1.882.406 1.143 1.144.406 1.882 0 2.864 0 3.906 0 6.06 1.752 7.812 3.906 7.812H4l.788 7.877c.003.035.008.069.012.102 0 .007.002.013.003.02v.01c.524 4.3 3.31 7.834 7.077 9.47-3.81 1.647-6.607 5.235-7.092 9.604l-.782 7.292h-.099c-1.043 0-2.023.407-2.762 1.145C.406 44.07 0 45.05 0 46.094 0 48.248 1.752 50 3.906 50h25.39c1.044 0 2.025-.406 2.763-1.144.738-.738 1.144-1.72 1.144-2.762 0-2.154-1.752-3.907-3.906-3.907zM3.907 5.858c-1.078 0-1.954-.876-1.954-1.953 0-.521.203-1.011.572-1.38.37-.37.86-.573 1.381-.573h25.39c1.078 0 1.954.876 1.954 1.953 0 .522-.203 1.012-.572 1.381-.37.37-.86.572-1.381.572H3.906zm2.055 1.954h21.28l-.692 6.908H6.653l-.691-6.909zm.976 8.86h19.327c-1.046 4.427-5.02 7.643-9.663 7.643-4.644 0-8.618-3.216-9.664-7.642zm-.21 18.434c.523-4.711 4.268-8.338 8.897-8.79V29.2c0 .54.437.977.977.977.539 0 .976-.438.976-.977v-2.88c2.093.206 4.07 1.068 5.649 2.483 1.824 1.632 2.978 3.871 3.247 6.3l.678 6.326-9.603-5.157c-.072-.038-.148-.067-.226-.087-.476-.118-.98-.114-1.454.011-.074.02-.145.048-.212.084l-9.606 5.15.677-6.322zm17.71 7.08H8.77l7.69-4.123c.096-.016.195-.017.29-.004l7.686 4.127zm6.24 5.288c-.37.369-.86.572-1.381.572H3.907c-1.078 0-1.954-.876-1.954-1.953 0-.522.203-1.012.572-1.381.37-.37.86-.572 1.381-.572H29.297c1.077 0 1.953.876 1.953 1.953 0 .521-.203 1.011-.572 1.38z" transform="translate(28 20)"/>
        </g>
    </g>
</svg>
