<svg xmlns="http://www.w3.org/2000/svg" width="90" height="90" viewBox="0 0 90 90">
    <g fill="none" fill-rule="evenodd">
        <circle cx="45" cy="45" r="45" fill="#DEF3F5"/>
        <g fill="#1EAFBD" fill-rule="nonzero">
            <path d="M49.024 48.047h-4.297v-7.715c0-.54-.438-.976-.977-.976-.54 0-.976.437-.976.976v7.715h-11.72V29.492c0-.539-.437-.976-.976-.976H19.922c-.54 0-.977.437-.977.976v18.555H7.227v-22.07h.375c.26 0 .508-.103.691-.286L25 8.983l16.707 16.708c.183.183.432.286.69.286h.377V33.3c0 .54.437.976.976.976.54 0 .977-.437.977-.976v-7.324h4.297c.395 0 .75-.238.902-.603.151-.365.067-.785-.212-1.064L25.691.286c-.382-.381-1-.381-1.382 0l-9.18 9.18c-.38.381-.38 1 0 1.38.382.382 1 .382 1.382 0L25 2.359l21.665 21.666h-3.864L25.691 6.912c-.382-.381-1-.381-1.382 0L7.198 24.024H3.334l7.708-7.708c.382-.382.382-1 0-1.381-.381-.382-1-.382-1.381 0L.286 24.31c-.28.279-.363.699-.212 1.064.151.365.508.603.903.603h4.297v22.07H.977c-.54 0-.977.437-.977.977 0 .539.437.976.977.976h48.047c.539 0 .976-.437.976-.976 0-.54-.437-.977-.976-.977zm-19.922 0h-8.203V30.47h8.203v17.578z" transform="translate(20 20)"/>
            <path d="M39.649 28.516h-5.47c-.538 0-.976.437-.976.976v9.766c0 .54.438.977.977.977h5.469c.539 0 .976-.438.976-.977v-9.766c0-.539-.437-.976-.976-.976zm-.977 9.765h-3.516V30.47h3.516v7.812zM15.82 28.516h-5.468c-.54 0-.977.437-.977.976v9.766c0 .54.437.977.977.977h5.468c.54 0 .977-.438.977-.977v-9.766c0-.539-.437-.976-.977-.976zm-.976 9.765h-3.516V30.47h3.516v7.812zM25 16.047c-2.477 0-4.492 2.015-4.492 4.492s2.015 4.492 4.492 4.492 4.492-2.015 4.492-4.492-2.015-4.492-4.492-4.492zm0 7.031c-1.4 0-2.539-1.139-2.539-2.539 0-1.4 1.139-2.539 2.54-2.539 1.4 0 2.538 1.14 2.538 2.54 0 1.4-1.139 2.538-2.539 2.538zM23.835 38.568c-.182-.182-.434-.287-.69-.287-.257 0-.51.105-.69.287-.182.181-.287.433-.287.69 0 .257.104.509.286.69.182.182.434.287.69.287.257 0 .51-.105.691-.287.182-.181.286-.433.286-.69 0-.257-.104-.509-.286-.69zM13.679 12.298c-.182-.182-.434-.286-.69-.286-.257 0-.51.104-.691.286-.182.182-.286.434-.286.69 0 .257.104.51.286.69.182.183.434.287.69.287.257 0 .51-.104.69-.286.182-.182.287-.434.287-.69 0-.257-.105-.51-.286-.691zM44.44 35.865c-.181-.181-.433-.286-.69-.286-.257 0-.509.105-.69.286-.182.183-.286.434-.286.69 0 .258.104.51.286.692.181.182.433.285.69.285.257 0 .509-.103.69-.285.182-.182.287-.433.287-.691 0-.257-.105-.509-.287-.69z" transform="translate(20 20)"/>
        </g>
    </g>
</svg>
