<?xml version="1.0" encoding="UTF-8"?>
<svg width="17px" height="17px" viewBox="0 0 17 17" version="1.1" xmlns="http://www.w3.org/2000/svg" xmlns:xlink="http://www.w3.org/1999/xlink">
    <!-- Generator: Sketch 55.2 (78181) - https://sketchapp.com -->
    <title>insta_white</title>
    <desc>Created with Sketch.</desc>
    <g id="Desktop" stroke="none" stroke-width="1" fill="none" fill-rule="evenodd">
        <g id="diversepro-home-main_color" transform="translate(-49.000000, -744.000000)" fill="#FFFFFF">
            <g id="Main">
                <g id="left-panel">
                    <g id="sn" transform="translate(49.000000, 744.000000)">
                        <path d="M8.49998313,1.53156254 C10.769592,1.53156254 11.038405,1.54020018 11.9346957,1.58109404 C12.7634373,1.61891748 13.2135058,1.75738973 13.5130567,1.87376176 C13.9097811,2.02795723 14.1929676,2.21218202 14.4903928,2.5096072 C14.787818,2.80703238 14.9720428,3.09021894 15.1262045,3.4869433 C15.2426103,3.78649415 15.3810825,4.23656273 15.418906,5.06527059 C15.4597998,5.96159503 15.4684375,6.23040801 15.4684375,8.50001687 C15.4684375,10.7696257 15.4597998,11.0384387 15.418906,11.9347294 C15.3810825,12.763471 15.2426103,13.2135396 15.1262045,13.5130904 C14.9720428,13.9098148 14.787818,14.1930014 14.4903928,14.4904265 C14.1929676,14.7878517 13.9097811,14.9720765 13.5130567,15.1262382 C13.2135058,15.242644 12.7634373,15.3811163 11.9346957,15.4189397 C11.0385399,15.4598336 10.769727,15.4684712 8.49998313,15.4684712 C6.2302393,15.4684712 5.96142632,15.4598336 5.06527059,15.4189397 C4.23652898,15.3811163 3.78646041,15.242644 3.4869433,15.1262382 C3.0901852,14.9720765 2.80699864,14.7878517 2.50957346,14.4904265 C2.21214828,14.1930014 2.02792349,13.9098148 1.87376176,13.5130904 C1.75735599,13.2135396 1.61888374,12.763471 1.58106029,11.9347631 C1.54016644,11.0384387 1.5315288,10.7696257 1.5315288,8.50001687 C1.5315288,6.23040801 1.54016644,5.96159503 1.58106029,5.06530433 C1.61888374,4.23656273 1.75735599,3.78649415 1.87376176,3.4869433 C2.02792349,3.09021894 2.21214828,2.80703238 2.50957346,2.5096072 C2.80699864,2.21218202 3.0901852,2.02795723 3.4869433,1.87376176 C3.78646041,1.75738973 4.23652898,1.61891748 5.06523685,1.58109404 C5.96156129,1.54020018 6.23037426,1.53156254 8.49998313,1.53156254 M8.49998313,0 C10.8084614,0 11.0979237,0.00978483291 12.0045054,0.0511510576 C12.909265,0.0924498006 13.5271266,0.23611814 14.067823,0.446255862 C14.6267731,0.663479153 15.1007977,0.954122431 15.5733376,1.42666238 C16.0458776,1.89920233 16.3365208,2.37322687 16.5537441,2.93217702 C16.7638819,3.47287339 16.9075502,4.09073497 16.9488489,4.99549461 C16.9902152,5.90207625 17,6.1915386 17,8.50001687 C17,10.8084951 16.9902152,11.0979575 16.9488489,12.0045391 C16.9075502,12.9092988 16.7638819,13.5271604 16.5537441,14.0678567 C16.3365208,14.6268069 16.0458776,15.1008314 15.5733376,15.5733714 C15.1007977,16.0459113 14.6267731,16.3365546 14.067823,16.5537779 C13.5271266,16.7639156 12.909265,16.9075839 12.0045054,16.9488827 C11.0979237,16.9902489 10.8084614,17 8.49998313,17 C6.19150486,17 5.90207625,16.9902489 4.99546087,16.9488827 C4.09070123,16.9075839 3.47283965,16.7639156 2.93214328,16.5537779 C2.37319313,16.3365546 1.89916859,16.0459113 1.42662864,15.5733714 C0.954088691,15.1008314 0.663445412,14.6267731 0.446222122,14.0678567 C0.2360844,13.5271604 0.0924160598,12.9092988 0.0511173168,12.0045391 C0.00975109211,11.0979575 0,10.8084951 0,8.50001687 C0,6.1915386 0.00975109211,5.90207625 0.0511173168,4.99549461 C0.0924160598,4.09073497 0.2360844,3.47287339 0.446222122,2.93217702 C0.663445412,2.37322687 0.954088691,1.89920233 1.42662864,1.42666238 C1.89916859,0.954122431 2.37319313,0.663479153 2.93214328,0.446255862 C3.47283965,0.23611814 4.09070123,0.0924498006 4.99546087,0.0511510576 C5.90207625,0.00978483291 6.19150486,0 8.49998313,0 Z M8.51686508,4.14880952 C6.1044653,4.14880952 4.14880952,6.1044653 4.14880952,8.51686508 C4.14880952,10.9292649 6.1044653,12.8849206 8.51686508,12.8849206 C10.9292649,12.8849206 12.8849206,10.9292649 12.8849206,8.51686508 C12.8849206,6.1044653 10.9292649,4.14880952 8.51686508,4.14880952 Z M8.51686508,11.3522773 C6.95092906,11.3522773 5.6814529,10.0828011 5.6814529,8.51686508 C5.6814529,6.95092906 6.95092906,5.6814529 8.51686508,5.6814529 C10.0828011,5.6814529 11.3522773,6.95092906 11.3522773,8.51686508 C11.3522773,10.0828011 10.0828011,11.3522773 8.51686508,11.3522773 Z M14.031746,3.94641183 C14.031746,3.38754705 13.5787228,2.93452381 13.019858,2.93452381 C12.4609932,2.93452381 12.0079365,3.38754705 12.0079365,3.94641183 C12.0079365,4.50527662 12.4609932,4.95833333 13.019858,4.95833333 C13.5787228,4.95833333 14.031746,4.50527662 14.031746,3.94641183 Z" id="insta_white"></path>
                    </g>
                </g>
            </g>
        </g>
    </g>
</svg>