<svg xmlns="http://www.w3.org/2000/svg" width="90" height="90" viewBox="0 0 90 90">
    <g fill="none" fill-rule="evenodd">
        <circle cx="45" cy="45" r="45" fill="#DEF3F5"/>
        <g fill="#1EAFBD" fill-rule="nonzero">
            <path d="M15.381 14.271c-5.64 0-10.212 4.573-10.212 10.213 0 5.64 4.572 10.213 10.212 10.213s10.213-4.572 10.213-10.213c0-5.64-4.572-10.213-10.213-10.213zm7.559 6.383h-3.681c-.352-1.763-.902-3.189-1.463-4.289 2.249.671 4.095 2.23 5.144 4.29zm-5.005 3.83c0 .76-.057 1.458-.136 2.128h-4.835c-.079-.67-.136-1.368-.136-2.128s.056-1.458.134-2.127h4.84c.077.67.133 1.367.133 2.127zM15.134 16c.084-.003.163-.025.247-.025.086 0 .165.022.25.025.64.98 1.416 2.53 1.886 4.655h-4.271c.472-2.132 1.252-3.682 1.888-4.655zm-2.167.366c-.56 1.098-1.11 2.525-1.462 4.29H7.823c1.049-2.06 2.895-3.618 5.144-4.29zm-6.096 8.12c0-.74.124-1.444.302-2.128h4.074c-.071.674-.12 1.375-.12 2.127 0 .753.05 1.453.122 2.128H7.173c-.178-.684-.302-1.389-.302-2.128zm.952 3.829h3.686c.356 1.768.907 3.206 1.456 4.289-2.248-.672-4.094-2.231-5.142-4.289zm7.806 4.656c-.084.003-.163.025-.248.025-.084 0-.163-.023-.247-.025-.61-.938-1.405-2.492-1.886-4.656h4.267c-.48 2.163-1.274 3.716-1.886 4.656zm2.17-.367c.55-1.084 1.1-2.521 1.455-4.289h3.686c-1.049 2.058-2.894 3.617-5.141 4.289zm1.715-5.991c.072-.675.123-1.375.123-2.128 0-.752-.05-1.453-.12-2.127h4.073c.178.684.302 1.388.302 2.127 0 .74-.124 1.444-.302 2.128h-4.076zM6.871 39.803H23.892000000000003V41.504999999999995H6.871z" transform="translate(21 20)"/>
            <path d="M34.421 28.556L37.825 28.556 37.825 30.258 34.421 30.258z" transform="translate(21 20) rotate(-74.995 36.123 29.407)"/>
            <path d="M27.302 39.239L39.216 39.239 39.216 40.941 27.302 40.941z" transform="translate(21 20) rotate(-75.001 33.26 40.09)"/>
            <path d="M45.198 5.403L25.468.117C25.173.037 24.877 0 24.585 0c-1.503 0-2.878 1.003-3.286 2.524l-1.78 6.641H1.765c-.94 0-1.702.762-1.702 1.702V44.91c0 .94.762 1.702 1.702 1.702h19.66l11.88 3.183c.294.079.59.117.882.117 1.503 0 2.879-1.003 3.286-2.524L47.605 9.573c.487-1.816-.591-3.683-2.407-4.17zM1.764 44.91V10.867h25.532c.939 0 1.702.764 1.702 1.702v30.639c0 .938-.763 1.702-1.702 1.702H1.764zM45.961 9.132L35.83 46.947c-.2.744-.875 1.263-1.643 1.263-.148 0-.297-.02-.442-.06l-5.936-1.59c1.635-.248 2.892-1.648 2.892-3.352V29.714l.872.233.882-3.288-1.645-.44-.109.406V13.1l1.737.465 2.013 6.581 1.41.378-.134-6.077 2.49.667 1.094 1.93.94.25-.162-2.686 1.483-2.246-.94-.251-1.912 1.124c-.62-.166-1.564-.42-2.49-.667l3.155-5.197-1.41-.377-5.033 4.693-2.655-.712c-.573-1.072-1.69-1.809-2.99-1.809h-6.015l1.662-6.2c.2-.744.875-1.263 1.642-1.263.148 0 .297.02.443.06l19.73 5.286c.438.117.805.4 1.033.793.227.393.288.852.17 1.291z" transform="translate(21 20)"/>
            <path d="M35.039 23.243L36.741 23.243 36.741 24.916 35.039 24.916z" transform="translate(21 20) rotate(-75.179 35.89 24.08)"/>
            <path d="M38.269 24.102L39.971 24.102 39.971 25.775 38.269 25.775z" transform="translate(21 20) rotate(-75.179 39.12 24.938)"/>
            <path d="M31.808 22.388L33.51 22.388 33.51 24.061 31.808 24.061z" transform="translate(21 20) rotate(-75.179 32.66 23.224)"/>
        </g>
    </g>
</svg>
