<svg xmlns="http://www.w3.org/2000/svg" width="90" height="90" viewBox="0 0 90 90">
    <g fill="none" fill-rule="evenodd">
        <circle cx="45" cy="45" r="45" fill="#DEF3F5"/>
        <g fill="#1EAFBD" fill-rule="nonzero">
            <path d="M26.543 11.935h-.015c-.602 0-1.091.489-1.091 1.092 0 .603.489 1.092 1.091 1.092h.015c.603 0 1.092-.49 1.092-1.092 0-.603-.49-1.092-1.092-1.092zM22.162 11.935h-8.639c-.603 0-1.091.489-1.091 1.092 0 .603.488 1.092 1.091 1.092h8.639c.602 0 1.091-.49 1.091-1.092 0-.603-.489-1.092-1.091-1.092z" transform="translate(17 20)"/>
            <path d="M51.638 7.552V6.87c0-1.806-1.47-3.275-3.276-3.275-1.805 0-3.275 1.47-3.275 3.275v.546h-3.489V2.53c0-1.395-1.135-2.53-2.531-2.53h-15.47c-1.396 0-2.532 1.135-2.532 2.53v4.886h-3.489V6.87c0-1.806-1.469-3.275-3.275-3.275-1.806 0-3.275 1.47-3.275 3.275v.68c-2.434.55-4.257 2.727-4.257 5.324v15.747C2.793 30.323 0 34.274 0 38.865 0 45.005 4.995 50 11.135 50s11.136-4.995 11.136-11.135-4.996-11.136-11.136-11.136c-.747 0-1.477.075-2.183.216V23.82l17.689-.012c.071 2.489 2.116 4.491 4.621 4.491h.14c2.5 0 4.543-1.996 4.62-4.479h17.69v14.826c0 1.806-1.47 3.275-3.275 3.275H29.913c-.603 0-1.092.49-1.092 1.092 0 .603.489 1.092 1.092 1.092h20.524c3.01 0 5.458-2.449 5.458-5.459V12.875c0-2.597-1.824-4.775-4.257-5.323zm-31.55 31.313c0 4.936-4.016 8.952-8.953 8.952-4.936 0-8.952-4.016-8.952-8.952 0-4.937 4.016-8.952 8.952-8.952 4.937 0 8.952 4.015 8.952 8.952zM47.27 6.87c0-.602.49-1.092 1.091-1.092.602 0 1.092.49 1.092 1.092v.546h-2.183V6.87zm-24.022-4.34c0-.191.156-.348.348-.348h15.47c.192 0 .348.157.348.348v4.886H23.25V2.53zm-10.04 4.34c0-.602.49-1.092 1.092-1.092.602 0 1.092.49 1.092 1.092v.546H13.21V6.87zm20.634 16.804c0 1.346-1.095 2.441-2.441 2.441h-.14c-1.346 0-2.44-1.095-2.44-2.441v-3.46h5.02v3.46zm2.183-2.038v-2.513c0-.603-.489-1.092-1.092-1.092H27.73c-.603 0-1.091.489-1.091 1.092v2.5l-17.686.012v-8.76c0-1.807 1.47-3.276 3.275-3.276h38.21c1.806 0 3.275 1.47 3.275 3.275V21.637H36.026z" transform="translate(17 20)"/>
            <path d="M25.546 41.921c-.287 0-.569.117-.772.32-.203.203-.32.485-.32.772 0 .287.117.569.32.772.203.203.485.32.772.32.287 0 .569-.117.772-.32.203-.203.32-.485.32-.772 0-.287-.117-.569-.32-.772-.203-.203-.485-.32-.772-.32zM11.135 42.144c-.713 0-1.293-.482-1.293-1.073 0-.603-.489-1.092-1.092-1.092-.603 0-1.091.489-1.091 1.092 0 1.439 1.001 2.662 2.386 3.091.014.59.496 1.066 1.09 1.066.594 0 1.077-.475 1.09-1.066 1.385-.43 2.387-1.652 2.387-3.091 0-1.796-1.56-3.257-3.477-3.257-.713 0-1.293-.48-1.293-1.073 0-.591.58-1.072 1.293-1.072.714 0 1.294.48 1.294 1.072 0 .603.489 1.092 1.092 1.092.602 0 1.091-.489 1.091-1.092 0-1.438-1.001-2.66-2.385-3.09v-.057c0-.603-.489-1.092-1.092-1.092-.602 0-1.091.489-1.091 1.092v.057c-1.384.43-2.385 1.652-2.385 3.09 0 1.796 1.56 3.257 3.476 3.257.714 0 1.294.481 1.294 1.073 0 .591-.58 1.073-1.294 1.073z" transform="translate(17 20)"/>
        </g>
    </g>
</svg>
