<svg xmlns="http://www.w3.org/2000/svg" width="90" height="90" viewBox="0 0 90 90">
    <g fill="none" fill-rule="evenodd">
        <circle cx="45" cy="45" r="45" fill="#DEF3F5"/>
        <g fill="#1EAFBD" fill-rule="nonzero">
            <path d="M49.2 13.106l-.002-.002-3.222-.46c-.453-.064-.768-.483-.703-.936.03-.218.147-.414.323-.546L48.2 9.21c.366-.274.44-.793.165-1.159l-2.981-3.975c-.275-.366-.794-.44-1.16-.166l-2.602 1.953c-.365.277-.884.205-1.16-.16-.135-.176-.193-.4-.16-.62l.46-3.22c.065-.454-.25-.873-.702-.938h-.001L35.143.22c-.453-.065-.873.25-.938.702l-.46 3.222c-.065.453-.484.768-.937.703-.217-.03-.414-.147-.545-.323L30.31 1.922c-.275-.366-.794-.44-1.16-.166l-2.488 1.867c-1.126-.12-2.262-.12-3.388 0-7.373.843-13.155 6.723-13.874 14.11-.022.234-.03.467-.042.7h-.248c-.393 0-.732.277-.81.662l-.573 2.721-2.292-1.58c-.329-.228-.773-.187-1.056.096l-2.484 2.484c-.283.283-.323.726-.096 1.055l1.573 2.288-2.722.573c-.38.083-.652.42-.651.81v3.313c0 .392.274.73.658.81l2.722.573-1.574 2.288c-.226.33-.186.773.096 1.055l2.485 2.485c.282.282.727.323 1.056.096l2.288-1.578.572 2.722c.079.385.417.662.81.663h3.313c.391 0 .73-.274.81-.658l.573-2.722 2.288 1.574c.329.226.772.186 1.055-.096l1.286-1.29v2.36c.004 1.178.635 2.265 1.656 2.852v4.601c0 1.83 1.484 3.313 3.313 3.313h3.313c1.83 0 3.312-1.484 3.312-3.313v-4.601c1.022-.587 1.653-1.674 1.657-2.852v-3.278c.022-1.38.744-2.653 1.915-3.38.687-.447 1.34-.945 1.95-1.492l-1.105-1.233c-.546.489-1.13.935-1.745 1.334-1.644 1.032-2.651 2.83-2.672 4.77v3.279c0 .914-.741 1.656-1.656 1.656h-6.625c-.915 0-1.657-.742-1.657-1.656V35.79c-.019-1.905-1.01-3.668-2.627-4.674-6.563-4.125-8.541-12.79-4.417-19.353 2.56-4.073 7.025-6.551 11.835-6.568-.012.029-.023.06-.032.09-.03.217.026.438.158.613l1.952 2.603c.206.267.226.633.05.92-.17.288-.497.446-.828.398l-3.222-.46c-.453-.065-.872.249-.937.702l-.703 4.919c-.065.453.249.872.702.937l3.222.461c.453.064.768.484.703.937-.03.217-.147.413-.323.545l-2.603 1.952c-.366.275-.44.794-.165 1.16l2.981 3.975c.275.366.794.44 1.16.166l2.603-1.952c.367-.274.886-.2 1.16.167.13.175.187.395.156.612l-.46 3.221c-.064.453.25.873.703.938l4.92.703c.038.005.077.007.116.007.412 0 .762-.302.82-.71l.46-3.222c.065-.452.484-.767.937-.703.218.031.414.147.546.323l1.952 2.603c.275.366.794.44 1.16.166l3.975-2.982c.366-.274.44-.793.166-1.16l-1.952-2.602c-.205-.267-.225-.632-.05-.92.166-.292.496-.45.828-.397l3.222.46c.452.065.872-.25.937-.702l.702-4.92c.065-.452-.249-.872-.702-.937zM21.75 42.449h6.626v1.656h-6.625V42.45zm0 3.313h6.626v.828c0 .915-.742 1.656-1.656 1.656h-3.313c-.915 0-1.656-.741-1.656-1.656v-.828zM15.159 31.48c.452.37.924.714 1.415 1.031.783.495 1.372 1.243 1.669 2.12l-1.777 1.773-1.72-1.186c-.753-.52-1.784-.33-2.303.424-.125.18-.212.384-.257.598l-.434 2.068H9.782l-.434-2.064c-.188-.895-1.067-1.468-1.962-1.28-.214.045-.418.133-.598.257l-1.721 1.183-1.51-1.506 1.186-1.72c.52-.752.33-1.784-.423-2.303-.18-.125-.384-.212-.6-.258l-2.064-.434v-1.968l2.065-.435c.895-.19 1.466-1.069 1.277-1.964-.045-.212-.132-.414-.254-.593L3.558 23.5l1.509-1.505 1.721 1.186c.754.518 1.785.328 2.304-.426.124-.18.211-.384.256-.598l.145-.689c.133.954.353 1.894.657 2.808-2.725.325-4.67 2.798-4.346 5.523.325 2.724 2.797 4.67 5.522 4.345 1.64-.195 3.077-1.193 3.832-2.663zm-1.286-1.167c-.619 1.72-2.514 2.611-4.232 1.993-1.72-.618-2.612-2.513-1.993-4.232.473-1.315 1.721-2.19 3.119-2.188h.031c.762 1.642 1.802 3.14 3.075 4.427zm33.8-12.407l-2.402-.343c-1.358-.194-2.616.75-2.81 2.108-.094.653.076 1.315.472 1.842l1.455 1.94-2.65 1.988-1.456-1.94c-.823-1.097-2.38-1.32-3.478-.497-.528.396-.876.984-.97 1.636l-.335 2.405-3.279-.468.343-2.402c.195-1.358-.749-2.617-2.107-2.811-.653-.094-1.316.076-1.843.472l-1.94 1.455-1.988-2.65 1.94-1.456c1.097-.824 1.32-2.38.497-3.479-.395-.527-.984-.875-1.636-.969l-2.402-.342.469-3.28 2.402.344c1.358.194 2.617-.75 2.811-2.108.094-.652-.076-1.315-.472-1.843l-1.46-1.942 2.65-1.987 1.456 1.94c.823 1.098 2.38 1.32 3.478.497.527-.395.876-.983.97-1.636l.342-2.401 3.279.468-.343 2.401c-.194 1.359.75 2.617 2.108 2.811.653.093 1.315-.076 1.842-.472l1.94-1.455 1.988 2.65-1.94 1.456c-1.098.823-1.32 2.38-.497 3.478.395.527.983.876 1.636.97l2.401.342-.471 3.278z" transform="translate(20 20)"/>
            <path d="M35.61 7.885c-3.658 0-6.624 2.966-6.624 6.625 0 3.66 2.966 6.626 6.625 6.626s6.625-2.967 6.625-6.626c-.004-3.657-2.968-6.62-6.625-6.625zm0 11.594c-2.744 0-4.968-2.224-4.968-4.969 0-2.744 2.224-4.968 4.969-4.968 2.744 0 4.969 2.224 4.969 4.968-.003 2.743-2.226 4.966-4.97 4.97zM24.235 36.652H25.891V39.136H24.235zM21.441 28.519c-5.112-1.997-7.638-7.76-5.64-12.873.773-1.981 2.162-3.661 3.962-4.794l-.885-1.402c-5.418 3.414-7.043 10.572-3.63 15.99 1.322 2.099 3.282 3.718 5.592 4.62 2.044.783 3.395 2.746 3.395 4.936h1.657c.002-2.873-1.768-5.45-4.451-6.477zM40.798 30.855H46.595V32.511H40.798z" transform="translate(20 20)"/>
            <path d="M41.627 34.659L43.283 34.659 43.283 41.127 41.627 41.127z" transform="translate(20 20) rotate(-50.201 42.455 37.893)"/>
            <path d="M35.829 37.48H37.485V43.276999999999994H35.829z" transform="translate(20 20)"/>
            <path d="M0.944 13.463L7.773 13.463 7.773 15.119 0.944 15.119z" transform="translate(20 20) rotate(-14.035 4.359 14.29)"/>
            <path d="M4.773 3.691L6.428 3.691 6.428 10.815 4.773 10.815z" transform="translate(20 20) rotate(-54.463 5.6 7.253)"/>
            <path d="M10.138 0.105L11.794 0.105 11.794 6.943 10.138 6.943z" transform="translate(20 20) rotate(-14.342 10.966 3.524)"/>
        </g>
    </g>
</svg>
