<svg xmlns="http://www.w3.org/2000/svg" width="75" height="68" viewBox="0 0 75 68">
    <g fill="#1EAFBD">
        <path d="M73.002 51.983L61.436 31.949c-.401-.695-1.29-.932-1.984-.531-.695.401-.933 1.289-.532 1.984l11.567 20.033c1.304 2.26 1.304 4.959 0 7.219-1.305 2.26-3.642 3.609-6.252 3.609H10.14c-2.61 0-4.947-1.35-6.252-3.61-1.304-2.26-1.304-4.957 0-7.218L30.936 6.587c1.305-2.26 3.642-3.61 6.252-3.61s4.946 1.35 6.25 3.61l8.964 15.524c.4.695 1.289.933 1.984.531.694-.4.932-1.289.531-1.983L45.954 5.134C44.124 1.965 40.847.073 37.187.073c-3.659 0-6.936 1.891-8.766 5.061L1.373 51.983c-1.83 3.17-1.83 6.954 0 10.123 1.829 3.17 5.107 5.062 8.767 5.062h54.095c3.66 0 6.937-1.892 8.767-5.062 1.83-3.17 1.83-6.953 0-10.123z"/>
        <path d="M11.684 51.577c.4-.694.163-1.583-.532-1.984-.695-.4-1.583-.163-1.984.531l-2.735 4.737c-.781 1.354-.781 2.97 0 4.324.781 1.353 2.181 2.16 3.744 2.16h54.021c1.563 0 2.963-.807 3.744-2.16.781-1.354.781-2.97 0-4.324L40.931 8.077c-.781-1.353-2.18-2.16-3.743-2.16-1.563 0-2.963.807-3.744 2.16L15.672 38.86c-.401.695-.163 1.583.532 1.984.694.401 1.583.163 1.984-.532L35.96 9.531c.338-.587.854-.71 1.227-.71.374 0 .89.123 1.228.71l27.011 46.783c.338.586.187 1.095 0 1.418-.187.324-.551.709-1.228.709H10.176c-.676 0-1.04-.385-1.228-.709-.186-.323-.338-.832 0-1.418l2.736-4.737z"/>
        <path d="M37.188 46.786c-2.65 0-4.807 2.157-4.807 4.806 0 2.65 2.157 4.806 4.806 4.806 2.65 0 4.806-2.156 4.806-4.806s-2.156-4.806-4.806-4.806zm0 6.707c-1.049 0-1.901-.853-1.901-1.9 0-1.05.852-1.901 1.9-1.901 1.049 0 1.901.852 1.901 1.9s-.852 1.901-1.9 1.901zM41.793 21.836c-1.16-1.331-2.84-2.095-4.605-2.095-1.767 0-3.445.764-4.606 2.095-1.16 1.332-1.688 3.099-1.447 4.848l1.96 14.228c.28 2.034 2.04 3.568 4.093 3.568 2.052 0 3.812-1.534 4.092-3.568l1.96-14.228c.24-1.75-.287-3.516-1.447-4.848zm-1.431 4.452l-1.96 14.228c-.083.603-.605 1.059-1.215 1.059-.609 0-1.132-.456-1.214-1.06l-1.96-14.227c-.126-.918.15-1.845.759-2.543.609-.698 1.489-1.099 2.416-1.099.926 0 1.806.401 2.415 1.099.608.698.885 1.625.759 2.543zM14.695 46.261c.436-.435.546-1.116.275-1.668-.278-.567-.913-.893-1.535-.791-.597.097-1.079.568-1.193 1.16-.112.578.151 1.185.649 1.5.566.357 1.33.276 1.804-.2zM55.543 27.524c.23.559.807.927 1.411.895.599-.03 1.127-.436 1.31-1.006.186-.578-.016-1.226-.497-1.596-.487-.375-1.179-.397-1.69-.056-.57.38-.797 1.132-.534 1.763z"/>
    </g>
</svg>
